<svg xmlns="http://www.w3.org/2000/svg" xmlns:xlink="http://www.w3.org/1999/xlink" xmlns:lucid="lucid" width="1761" height="1681"><g transform="translate(3860.5 320.5)" lucid:page-tab-id="0_0"><path d="M-4000-500h2000v2000h-2000z" fill="#fff"/><path d="M-3400-312a8 8 0 0 1 8-8h1284a8 8 0 0 1 8 8v1664a8 8 0 0 1-8 8h-1284a8 8 0 0 1-8-8z" stroke="#000" stroke-opacity="0" fill="#edf5ff"/><use xlink:href="#a" transform="matrix(1,0,0,1,-3392,-312) translate(438.6975308641975 24.888888888888893)"/><use xlink:href="#b" transform="matrix(1,0,0,1,-3392,-312) translate(557.8703703703703 24.888888888888893)"/><use xlink:href="#c" transform="matrix(1,0,0,1,-3392,-312) translate(703.9197530864197 24.888888888888893)"/><path d="M-3705.25 357.62c0 24.72-20.03 44.75-44.75 44.75s-44.75-20.03-44.75-44.75c0-24.7 20.03-44.75 44.75-44.75s44.75 20.04 44.75 44.75z" stroke="#3a414a" fill="#fff"/><path d="M-3750 402.37v119.3a17.66 17.66 0 0 0 3.66 10.76L-3640 670.87m-110-143.2l-110 143.2m0-223.75h220" stroke="#3a414a" fill="none"/><path d="M-3860 318.87a6 6 0 0 1 6-6h208a6 6 0 0 1 6 6v368a6 6 0 0 1-6 6h-208a6 6 0 0 1-6-6z" fill="none"/><use xlink:href="#d" transform="matrix(1,0,0,1,-3940,670.8733189827653) translate(127.94444444444446 32)"/><path d="M-3101-115c0 35.9-50.6 65-113 65s-113-29.1-113-65 50.6-65 113-65 113 29.1 113 65z" stroke="#fff" fill="#635dff"/><use xlink:href="#e" transform="matrix(1,0,0,1,-3327,-180) translate(45.7580864197531 51.548611111111114)"/><use xlink:href="#f" transform="matrix(1,0,0,1,-3327,-180) translate(24.89388888888889 86.21527777777777)"/><use xlink:href="#g" transform="matrix(1,0,0,1,-3327,-180) translate(82.59141975308641 86.21527777777777)"/><path d="M-3100 145c0 35.9-53.73 65-120 65-66.27 0-120-29.1-120-65s53.73-65 120-65c66.27 0 120 29.1 120 65z" stroke="#fff" fill="#635dff"/><use xlink:href="#h" transform="matrix(1,0,0,1,-3340,80) translate(37.51117283950617 51.548611111111114)"/><use xlink:href="#i" transform="matrix(1,0,0,1,-3340,80) translate(152.825987654321 51.548611111111114)"/><use xlink:href="#j" transform="matrix(1,0,0,1,-3340,80) translate(39.11611111111114 86.21527777777777)"/><path d="M-3107 423.56c0 36.7-52.16 66.44-116.5 66.44s-116.5-29.75-116.5-66.44c0-36.7 52.16-66.43 116.5-66.43s116.5 29.74 116.5 66.43z" stroke="#fff" fill="#635dff"/><use xlink:href="#h" transform="matrix(1,0,0,1,-3340,357.1266810172346) translate(34.01117283950617 56.361111111111114)"/><use xlink:href="#i" transform="matrix(1,0,0,1,-3340,357.1266810172346) translate(149.325987654321 56.361111111111114)"/><use xlink:href="#k" transform="matrix(1,0,0,1,-3340,357.1266810172346) translate(52.5080864197531 91.02777777777777)"/><path d="M-3107 1086.44c0 36.7-47.46 66.43-106 66.43s-106-29.74-106-66.43c0-36.7 47.46-66.44 106-66.44s106 29.74 106 66.44z" stroke="#fff" fill="#635dff"/><use xlink:href="#l" transform="matrix(1,0,0,1,-3319,1020) translate(24.35376543209876 56.361111111111114)"/><use xlink:href="#m" transform="matrix(1,0,0,1,-3319,1020) translate(52.62228395061729 91.02777777777777)"/><path d="M-3108 706.44c0 36.7-47.46 66.43-106 66.43s-106-29.74-106-66.43c0-36.7 47.46-66.44 106-66.44s106 29.75 106 66.44z" stroke="#fff" fill="#635dff"/><use xlink:href="#n" transform="matrix(1,0,0,1,-3320,640) translate(52.35993827160494 39.736111111111114)"/><use xlink:href="#f" transform="matrix(1,0,0,1,-3320,640) translate(5.0543827160493695 74.40277777777777)"/><use xlink:href="#o" transform="matrix(1,0,0,1,-3320,640) translate(62.75191358024689 74.40277777777777)"/><use xlink:href="#p" transform="matrix(1,0,0,1,-3320,640) translate(59.58216049382717 109.06944444444444)"/><use xlink:href="#q" transform="matrix(1,0,0,1,-3320,640) translate(93.20561728395063 109.06944444444444)"/><path d="M-2540 480c0 33.14-40.3 60-90 60s-90-26.86-90-60 40.3-60 90-60 90 26.86 90 60z" stroke="#fff" fill="#635dff"/><use xlink:href="#r" transform="matrix(1,0,0,1,-2720,420) translate(29.17783950617283 64.70486111111111)"/><path d="M-2685 650c0 31.17-40.3 56.44-90 56.44s-90-25.27-90-56.44c0-31.17 40.3-56.44 90-56.44s90 25.27 90 56.44z" stroke="#fff" fill="#635dff"/><use xlink:href="#s" transform="matrix(1,0,0,1,-2865,593.5633405086173) translate(5.224135802469144 61.954861111111114)"/><path d="M-2685 776.44c0 31.17-40.3 56.43-90 56.43s-90-25.26-90-56.43c0-31.17 40.3-56.44 90-56.44s90 25.27 90 56.44z" stroke="#fff" fill="#635dff"/><use xlink:href="#t" transform="matrix(1,0,0,1,-2865,720) translate(18.02351851851852 61.954861111111114)"/><path d="M-2180 5c0 58-62.68 105-140 105s-140-47-140-105 62.68-105 140-105 140 47 140 105z" stroke="#fff" fill="#635dff"/><use xlink:href="#u" transform="matrix(1,0,0,1,-2460,-100) translate(30.46796296296295 108.42361111111111)"/><path d="M-2660 962.12c0 35.14-49.25 63.63-110 63.63s-110-28.5-110-63.63c0-35.14 49.25-63.62 110-63.62s110 28.48 110 63.62z" stroke="#fff" fill="#635dff"/><use xlink:href="#v" transform="matrix(1,0,0,1,-2880,898.4973539337077) translate(33.44944444444443 71.11111111111111)"/><use xlink:href="#w" transform="matrix(1,0,0,1,-2880,898.4973539337077) translate(108.07907407407407 71.11111111111111)"/><path d="M-2660 1109.38c0 35.07-50.2 63.5-112.15 63.5-61.93 0-112.14-28.43-112.14-63.5s50.22-63.5 112.15-63.5c61.94 0 112.15 28.43 112.15 63.5z" stroke="#fff" fill="#635dff"/><use xlink:href="#x" transform="matrix(1,0,0,1,-2884.2931354189755,1045.8883212566989) translate(37.273518518518514 54.861111111111114)"/><use xlink:href="#y" transform="matrix(1,0,0,1,-2884.2931354189755,1045.8883212566989) translate(128.51425925925926 54.861111111111114)"/><use xlink:href="#z" transform="matrix(1,0,0,1,-2884.2931354189755,1045.8883212566989) translate(36.31055555555555 89.52777777777777)"/><path d="M-2659.3 1256.5c0 35.07-50.36 63.5-112.5 63.5-62.13 0-112.5-28.43-112.5-63.5 0-35.06 50.38-63.48 112.5-63.48 62.14 0 112.5 28.42 112.5 63.5z" stroke="#fff" fill="#635dff"/><use xlink:href="#A" transform="matrix(1,0,0,1,-2884.2931354189755,1193.0150022739333) translate(75.19018518518519 50.892361111111114)"/><use xlink:href="#B" transform="matrix(1,0,0,1,-2884.2931354189755,1193.0150022739333) translate(99.26425925925926 50.892361111111114)"/><use xlink:href="#C" transform="matrix(1,0,0,1,-2884.2931354189755,1193.0150022739333) translate(36.47104938271606 85.55902777777777)"/><path d="M-3106 1086.44h106.56a6 6 0 0 0 6-6V965.32a6 6 0 0 1 6-6h90.67" stroke="#3a414a" fill="none"/><path d="M-3106 1086.9h-.5v-.94h.5z" stroke="#3a414a" stroke-width=".05" fill="#3a414a"/><path d="M-2882 959.32l-14.27 4.64v-9.27z" stroke="#3a414a" fill="#3a414a"/><path d="M-3106 1086.44h104.35a6 6 0 0 1 6 6v10.94a6 6 0 0 0 6 6h88.47" stroke="#3a414a" fill="none"/><path d="M-3106 1086.9h-.5v-.94h.5z" stroke="#3a414a" stroke-width=".05" fill="#3a414a"/><path d="M-2886.4 1109.38l-14.28 4.64v-9.27z" stroke="#3a414a" fill="#3a414a"/><path d="M-3106 1086.44h104.66a6 6 0 0 1 6 6v151.33a6 6 0 0 0 6 6h88.8" stroke="#3a414a" fill="none"/><path d="M-3106 1086.9h-.5v-.94h.5z" stroke="#3a414a" stroke-width=".05" fill="#3a414a"/><path d="M-2885.8 1249.77l-14.25 4.63v-9.27z" stroke="#3a414a" fill="#3a414a"/><path d="M-3107 706.44h14.5a6 6 0 0 0 6-6V606a6 6 0 0 1 6-6h160.5a6 6 0 0 0 6-6V486a6 6 0 0 1 6-6h171.12" stroke="#3a414a" fill="none"/><path d="M-3107 706.9h-.5v-.94h.5z" stroke="#3a414a" stroke-width=".05" fill="#3a414a"/><path d="M-2722.12 480l-14.26 4.63v-9.26z" stroke="#3a414a" fill="#3a414a"/><path d="M-3107 706.44h114.5a6 6 0 0 0 6-6V656a6 6 0 0 1 6-6h98.62" stroke="#3a414a" fill="none"/><path d="M-3107 706.9h-.5v-.94h.5z" stroke="#3a414a" stroke-width=".05" fill="#3a414a"/><path d="M-2867.12 650l-14.26 4.63v-9.26z" stroke="#3a414a" fill="#3a414a"/><path d="M-3107 706.44h114.5a6 6 0 0 1 6 6v58a6 6 0 0 0 6 6h98.62" stroke="#3a414a" fill="none"/><path d="M-3107 706.9h-.5v-.94h.5z" stroke="#3a414a" stroke-width=".05" fill="#3a414a"/><path d="M-2867.12 776.44l-14.26 4.63v-9.27z" stroke="#3a414a" fill="#3a414a"/><path d="M-2682.5 776.9h-1.5v-.94h1.5zm4.94 0h-2.97v-.94h2.97zm4.96 0h-2.97v-.94h2.97zm4.96 0h-2.98v-.94h2.98zm4.95 0h-2.96v-.94h2.97zm4.97 0h-2.97v-.94h2.97zm4.96 0h-2.98v-.94h2.98zm4.95 0h-2.97v-.94h2.98zm4.96 0h-2.97v-.94h2.97zm4.95 0h-2.98v-.94h2.97zm4.95 0h-2.97v-.94h2.97zm4.96 0h-2.97v-.94h2.98zm4.97 0h-2.98v-.94h2.97zm4.95 0h-2.97v-.94h2.97zm4.96 0h-2.98v-.94h2.98zm4.95 0h-2.97v-.94h2.97zm4.96 0h-2.98v-.94h2.97zm4.95 0h-2.98v-.94h2.98zm4.97-.18l-.5.1-.98.1h-1.5v-.96h1.46l.88-.07.42-.1zm4-2.9l-.26.42-.66.78-.78.66-.43.26-.5-.8.36-.24.66-.56.57-.66.2-.37zm.97-3.37l-.1 1-.1.5-.93-.23.1-.42.07-.88v-1.5h.95zm0-3.52h-.96v-3h.95zm0-5h-.96v-3h.95zm0-5h-.96v-3h.95zm0-5h-.96v-3h.95zm0-5.02h-.96v-3h.95zm0-5h-.96v-3h.95zm0-5h-.96v-3h.95zm0-5h-.96v-3h.95zm0-5h-.96v-3h.95zm0-5h-.96v-3h.95zm0-5h-.96v-3.02h.95zm0-5.02h-.96v-3h.95zm0-5h-.96v-3h.95zm0-5h-.96v-3h.95zm0-5h-.96v-3.02h.95zm0-5.02h-.96v-3h.95zm0-5h-.96v-3h.95zm0-5h-.96v-3h.95zm0-5h-.96v-3.02h.95zm0-25.47h-.96v-2.58h.95zm0-4.58h-.96v-3h.95zm0-5h-.96v-3h.95zm0-5h-.96v-3.02h.95zm0-5.02h-.96v-3h.95zm0-5h-.96v-3h.95zm0-5h-.96v-3h.95zm0-5h-.96v-3h.95zm0-5.02h-.96v-3h.95zm0-5h-.96v-3h.95zm0-5h-.96v-3h.95zm0-5h-.96v-3h.95zm0-5.02h-.96v-3h.95zm0-5h-.96v-3h.95zm0-5h-.96v-3h.95zm0-5h-.96v-3h.95zm0-5h-.96v-3.02h.95zm0-5.02h-.96v-3h.95zm0-5h-.96v-3h.95zm0-5h-.96v-3h.95zm0-5h-.96v-1.52h.95z" stroke="#3a414a" stroke-width=".05" fill="#3a414a"/><path d="M-2684 776.9h-.5v-.94h.5z" fill="#3a414a"/><path stroke="#3a414a" stroke-width=".05" fill="#3a414a"/><path d="M-2584.15 549.72h-9.27l4.64-14.26z" fill="#3a414a"/><path d="M-2583.5 550.2h-10.57l5.3-16.28zm-9.26-.95h7.96l-3.98-12.25z" stroke="#3a414a" stroke-width=".05" fill="#3a414a"/><use xlink:href="#D" transform="matrix(1,0,0,1,-2640.561163540929,651.3906760425456) translate(0 14.222222222222223)"/><path d="M-2682.56 650.48h-1.44v-.96h1.44zm4.8 0h-2.88v-.96h2.87zm4.8 0h-2.9v-.96h2.9zm4.78 0h-2.88v-.96h2.88zm4.8 0h-2.88v-.96h2.87zm4.85-.2l-.5.12-.98.08h-1.47v-.96h1.42l.88-.06.42-.1zm4-2.9l-.26.43-.65.78-.78.66-.43.26-.5-.8.37-.23.67-.56.57-.65.22-.37zm.97-3.36l-.08 1-.12.5-.92-.24.1-.42.07-.88v-1.47h.94zm0-3.5h-.95v-2.97h.94zm0-4.95h-.95v-2.98h.94zm0-4.97h-.95v-2.97h.94zm0-4.96h-.95v-2.98h.94zm0-4.96h-.95v-2.98h.94zm0-4.96h-.95v-2.98h.94zm0-4.96h-.95v-2.98h.94zm0-4.97h-.95v-2.95h.94zm0-24.8h-.95v-3h.94zm0-4.97h-.95v-2.98h.94zm0-4.97h-.95v-2.97h.94zm0-4.96h-.95v-2.98h.94zm0-4.96h-.95v-2.98h.94zm0-4.96h-.95v-1.5h.94z" stroke="#3a414a" stroke-width=".05" fill="#3a414a"/><path d="M-2684 650.48h-.5v-.96h.5z" fill="#3a414a"/><path stroke="#3a414a" stroke-width=".05" fill="#3a414a"/><path d="M-2649.4 554.2h-9.27l4.64-14.28z" fill="#3a414a"/><path d="M-2648.74 554.67h-10.58l5.3-16.28zm-9.27-.95h7.95l-3.98-12.26z" stroke="#3a414a" stroke-width=".05" fill="#3a414a"/><use xlink:href="#D" transform="matrix(1,0,0,1,-2705.810772347776,581.5172932589041) translate(0 14.222222222222223)"/><path d="M-2476.87 4.2l-.02.94-1.5-.03.03-.94zm-3.5-.08v.95l-3-.06v-.94zm-4.98-.1l-.02.95-3-.06.03-.94zm-5-.1v.95l-3-.06.02-.94zm-4.98-.1l-.02.95-3-.06.03-.94zm-5-.1v.95l-3-.06.02-.94zm-4.98-.1l-.03.95-3-.06.03-.94zm-4.97-.16l-.06.95-3-.18.07-.95zm-4.98-.3l-.06.93-3-.2.06-.94zm-4.98-.32l-.06.94-2.98-.18.06-.95zm-5-.3l-.04.93-3-.18.07-.96zm-4.97-.33l-.05.96-3-.18.07-.95zm-4.98-.3l-.05.95-3-.18.07-.95zm-4.98-.3l-.05.94-3-.18.06-.95zm-4.98-.32l-.06.95-2.98-.2.06-.93zm-4.95-.35l-.1.94-2.97-.3.1-.96zm-4.95-.52l-.1.95-2.98-.3.1-.95zm-4.97-.5l-.1.93-2.97-.3.1-.95zm-4.96-.53l-.1.94-2.98-.3.1-.94zm-4.96-.52l-.1.94-2.98-.32.1-.94zm-4.97-.52l-.1.94-2.98-.3.1-.95zm-4.97-.52l-.1.96-2.98-.32.1-.94zm-4.93-.56l-.14.94-2.97-.44.13-.94zm-4.94-.73l-.14.95-2.96-.44.14-.93zm-4.94-.72l-.14.94-2.96-.43.14-.95zm-4.93-.73l-.15.95-2.96-.44.12-.94zm-4.95-.72l-.14.94-2.95-.44.14-.94zm-4.94-.73l-.13.94-2.96-.44.15-.94zm-4.9-.73l-.18.93-2.94-.56.18-.93zm-4.9-.94l-.18.94-2.94-.57.18-.93zm-4.9-.93l-.18.93-2.94-.56.17-.93zm-4.9-.94l-.18.94-2.95-.56.18-.94zm-4.9-.93l-.2.93-2.93-.56.18-.93zm-4.9-.93l-.2.93-2.93-.56.18-.94zm-4.88-1l-.22.94-2.9-.68.2-.93zm-4.86-1.13l-.22.93-2.9-.68.2-.93zm-4.86-1.13l-.22.92-2.9-.68.2-.93zm-4.86-1.14l-.2.92-2.93-.68.23-.93zm-4.85-1.14l-.23.92-2.92-.68.22-.93zm-5.1-.22l-2-.47-.73-.2h2.9zm-66.23-22.12l-.04.1h-2.47l-.63-.2.32-.9zm-4.7-1.67l-.32.9-2.82-1 .3-.9zm-4.7-1.67l-.33.9-2.82-1 .32-.9zm-4.7-1.67l-.33.9-2.82-1 .32-.9zm-4.7-1.66l-.33.9-2.82-1 .32-.9zm-4.7-1.67l-.33.9-2.82-1 .32-.9zm-4.72-1.67l-.3.9-2.84-1 .33-.9zm-4.7-1.67l-.32.9-2.82-1 .33-.9zm-4.7-1.67l-.32.9-2.82-1 .33-.9zm-4.7-1.67l-.32.88-2.82-1 .33-.9zm-4.7-1.68l-.32.9-2.82-1 .32-.9zm-4.7-1.67l-.32.9-2.83-1 .32-.9zm-4.7-1.67l-.33.9-2.82-1 .32-.9zm-4.7-1.67l-.33.9-2.82-1 .32-.9zm-4.7-1.66l-.33.9-2.82-1 .32-.9zm-4.72-1.67l-.3.9-2.84-1 .3-.9zm-4.7-1.67l-.32.9-2.8-1 .3-.9zm-4.7-1.67l-.32.9-2.8-1 .3-.9zm-4.7-1.67l-.32.9-2.8-1 .3-.9zm-4.7-1.67l-.32.9-2.8-1.02.3-.9zm-4.73-1.64l-.3.9-2.84-.93.3-.9zm-4.75-1.55l-.3.9-2.84-.92.3-.9zm-4.74-1.54l-.28.9-2.85-.93.3-.9zm-4.73-1.55l-.3.92-2.84-.93.3-.92zm-4.75-1.54l-.3.9-2.84-.92.3-.9zm-4.74-1.55l-.3.92-2.84-.93.3-.9zm-4.74-1.53l-.3.9-2.84-.93.3-.9zm-5-1.63l.25.08-.3.9-.23-.07-2.63-.74.25-.9zm-4.57-1.28l-.26.9-2.87-.8.26-.9zm-4.8-1.34l-.26.9-2.87-.8.25-.9zm-4.8-1.35l-.27.92-2.88-.82.26-.9zm-4.82-1.34l-.25.9-2.9-.8.27-.9zm-4.8-1.34l-.26.9-2.9-.8.26-.92zm-4.85-1.37l-.2.93-2.9-.68.2-.93zm-4.84-1.13l-.2.92-2.93-.68.22-.93zm-4.85-1.14l-.2.92-2.93-.68.22-.93zm-4.85-1.14l-.22.92-2.9-.68.2-.93zm-4.86-1.14l-.23.92-2.9-.68.2-.93zm-4.87-1.14l-.2.92-2.93-.68.22-.93zm-4.9-1.08l-.17.94-2.94-.56.18-.94zm-4.9-.93l-.17.93-2.94-.56.18-.93zm-4.9-.94l-.17.93-2.94-.56.18-.94zm-4.9-.94l-.17.93-2.94-.57.17-.93zm-4.9-.93l-.17.93-2.94-.56.17-.94zm-7.18-1.37l2.28.43-.18.93-2.26-.44-.67-.1.14-.94zm-2.66-.4l-.15.94-2.96-.43.13-.94zm-4.94-.72l-.14.94-2.96-.44.13-.94zm-4.94-.73l-.14.95-2.96-.44.14-.93zm-4.94-.72l-.14.94-2.96-.43.14-.95zm-4.93-.72l-.14.94-2.95-.44.13-.94zm-4.94-.73l-.13.94-2.96-.44.15-.94zm-4.95-.67l-.1.95-2.98-.3.1-.95zm-4.97-.52l-.1.95-2.97-.32.1-.95zm-4.96-.52l-.1.95-2.98-.3.1-.96zm-4.96-.52l-.1.95-2.98-.3.1-.96zm-4.97-.52l-.1.95-2.98-.3.1-.96zm-4.97-.52l-.1.95-2.97-.3.1-.95zm-4.96-.5l-.1.93-2.98-.32.1-.95zm-5-.46l-.05.95-3-.2.07-.94zm-4.97-.3l-.06.94-3-.2.07-.94zm-4.98-.32l-.06.94-3-.18.07-.95zm-4.98-.3l-.06.94-3-.2.07-.94zm-4.98-.32l-.06.94-3-.18.07-.95zm-4.98-.3l-.06.93-3-.2.07-.94zm-4.98-.33l-.06.95-3-.18.07-.95zm-4.98-.3l-.06.94-3-.18.07-.96zm-5-.26l-.02.95-3-.06.02-.95zm-5-.1v.95l-3-.06v-.95zm-4.98-.1l-.02.95-3-.06.03-.95zm-5-.1v.95l-3-.06.02-.95zm-4.98-.1l-.02.95-3-.06.03-.95zm-5-.1v.95l-3-.06.02-.95zm-4.98-.1l-.02.95-3-.06.03-.95zm-5-.1v.95l-3-.06.02-.95zm-4.97-.1v.95l-3-.06v-.95zm-4.98-.1l-.02.95-1.5-.03.02-.97z" stroke="#3a414a" stroke-width=".05" fill="#3a414a"/><path d="M-3099.97-115.47l-.02.95h-.5v-.95z" fill="#3a414a"/><path stroke="#3a414a" stroke-width=".05" fill="#3a414a"/><path d="M-2462.12 4.97l-14.35 4.34.18-9.26z" fill="#3a414a"/><path d="M-2460.58 5l-16.38 4.96.2-10.58zm-15.4 3.67l12.32-3.73L-2475.8.7z" stroke="#3a414a" stroke-width=".05" fill="#3a414a"/><use xlink:href="#D" transform="matrix(1,0,0,1,-2757.3608515462493,-39.56610447995392) translate(0 14.222222222222223)"/><path d="M-2777.14 159.17l-2.64.05-.4-.02.05-.95.36.02 2.62-.05zm5-.1l-3 .06v-.95l3-.06zm-10-.92l-.04.95-3-.15.05-.95zm15.02.82l-3 .06-.02-.95 3-.06zm5-.1l-3 .06v-.95l3-.06zm-25-.97l-.06.95-3-.15.05-.95zm30.02.86l-3 .06-.02-.94 3-.06zm5-.1l-3 .06v-.94l3-.06zm5.02-.1l-3 .06-.02-.94 3-.06zm-45.06-.9l-.04.94-3-.15.04-.94zm50.1.76l-1.06.07-1.97.02-.02-.95 1.96-.03 1.03-.07zm-55.1-1l-.05.93-3-.14.06-.94zm60.1.7l-3 .17-.07-.95 3-.2zm-65.1-.96l-.05.94-3-.14.05-.95zm70.1.64l-3 .18-.07-.94 3-.2zm-75.1-.9l-.06.96-3-.15.05-.94zm-5-.24l-.06.95-3-.14.04-.95zm-5.02-.25l-.04.96-3-.15.04-.94zm-5-.24l-.05.95-3-.14.04-.95zm-5-.25l-.05.96-3.02-.15.05-.94zm-5-.24l-.06.95-3-.14.05-.95zm-5-.24l-.06.95-3-.16.04-.93zm-5.02-.25l-.05.95-3-.15.05-.95zm-5-.25l-.05.95-3-.15.05-.95zm-5-.25l-.05.95-3-.15.04-.95zm-5-.25l-.06.95-3-.15.05-.95zm-5-.25l-.06.95-3-.15.04-.95zm-5.02-.25l-.05.95-3-.15.05-.95zm-5-.24l-.05.94-3-.15.05-.94zm-5-.25l-.05.94-3-.14.04-.95zm-5-.25l-.06.95-3-.15.05-.95zm-5.02-.25l-.04.95-3-.15.04-.95zm-5-.25l-.05.95-3-.15.05-.95zm-5-.25l-.05.95-3-.15.04-.95zm-5-.25l-.06.95-3-.15.05-.95zm-5-.25l-.06.95-3-.15.05-.94zm-5.02-.25l-.04.95-3-.14.04-.96zm-5-.24l-.05.94-3-.14.06-.95zm-5-.25l-.05.94-3-.15.05-.96zm-5-.26l-.06.95-3-.16.05-.95zm-5-.25l-.06.94-3-.15.05-.96zm-5.02-.26l-.04.95-3-.16.04-.95zm-5-.25l-.05.94-3-.15.04-.96zm-5-.26l-.05.95-3-.16.03-.95zm-5-.24l-.06.95-3-.16.05-.95zm-5-.25l-.06.95-3-.15.04-.95zm-5.02-.25l-.04.95-3-.15.04-.95zm-5-.25l-.05.95-3-.15.05-.95zm-5-.25l-.05.95-3-.15.04-.95zm-5-.25l-.06.95-3-.15.05-.95zm-5-.25l-.06.95-3-.15.04-.95zm-5.02-.24l-.05.94-3-.15.05-.94zm-5-.25l-.05.96-3-.15.04-.94zm-5-.24l-.05.95-3-.14.04-.95zm-5-.25l-.06.96-3-.15.05-.94zm-5.02-.24l-.04.95-3-.14.04-.95zm-5-.25l-.05.96-3-.15.05-.94zm-5-.24l-.05.95-3-.14.04-.95zm-5.02-.22l-.02.95-3-.08v-.95zm-5-.1l-.03.94-3-.07v-.94zm-5.02-.12l-.02.95-3-.07v-.95zm-5-.1l-.03.94-3-.07.03-.96zm-5.02-.13l-.02.94-3-.06.02-.95zm-5-.12l-.03.95-3-.06v-.95zm-5.02-.1l-.02.94-3-.06.02-.96zm-5-.12l-.03.95-3-.06.02-.95zm-5-.1l-.04.94-3-.07.02-.95zm-5.02-.12l-.03.95-3-.08.02-.95zm-5-.1l-.03.94-3-.07v-.94zm-5.02-.13l-.02.97-3-.07v-.95zm-5-.1l-.03.95-3-.06v-.96zm-5.02-.1l-.02.94-3-.06v-.95zm-5-.12l-.03.95-3-.07.03-.95zm-5.02-.1l-.02.94-1.5-.03.02-.96zm474.38-2.85l-2.93.7-.2-.94 2.9-.7zm4.85-1.34l-2.9.8-.25-.92 2.9-.8zm4.82-1.36l-2.9.8-.25-.9 2.9-.8zm4.83-1.35l-2.9.8-.25-.9 2.9-.82zm4.82-1.35l-2.9.8-.25-.9 2.9-.82zm4.8-1.54l-2.86.94-.3-.9 2.86-.93zm4.76-1.53l-2.86.92-.3-.9 2.87-.94zm4.77-1.55l-2.86.93-.3-.9 2.85-.94zm4.76-1.55l-2.85.93-.3-.9 2.87-.93zm4.73-1.73l-2.8 1.05-.34-.9 2.8-1.05zm4.7-1.75l-2.82 1.04-.32-.9 2.82-1.04zm4.7-1.75l-2.82 1.05-.32-.9 2.8-1.04zm4.7-1.75l-2.83 1.05-.33-.9 2.82-1.04zm4.64-1.92l-2.77 1.17-.37-.88 2.77-1.16zm4.62-1.94l-2.78 1.16-.37-.87 2.77-1.17zm4.6-1.94l-2.76 1.16-.37-.87 2.77-1.18zm4.63-1.95l-2.77 1.17-.37-.88 2.76-1.16zm4.57-2.1l-2.72 1.3-.4-.87 2.72-1.28zm4.53-2.12l-2.72 1.28-.4-.85 2.73-1.28zm4.54-2.14l-2.72 1.27-.4-.86 2.7-1.27zm4.53-2.14l-2.72 1.28-.4-.86 2.72-1.28zm4.5-2.24l-2.4 1.25-.3.14-.4-.85.28-.13 2.38-1.25zm4.44-2.33l-2.66 1.4-.44-.86 2.66-1.4zm4.44-2.33l-2.66 1.4-.44-.85 2.66-1.4zm4.44-2.32l-2.66 1.4-.44-.85 2.66-1.4zm4.44-2.36l-.63.36-2.03 1.06-.44-.84 2-1.06.63-.35zm4.34-2.52l-2.6 1.5-.48-.8 2.6-1.52zm4.34-2.5l-2.6 1.5-.48-.82 2.6-1.5zm4.34-2.5l-2.6 1.5-.48-.83 2.6-1.5zm4.34-2.5l-2.6 1.5-.48-.83 2.6-1.5zm4.3-2.62l-2.16 1.37-.4.23-.48-.82.4-.22 2.13-1.36zm4.23-2.7l-2.54 1.63-.5-.82 2.54-1.6zm4.23-2.67l-2.54 1.6-.5-.8 2.53-1.6zm4.23-2.7l-2.53 1.6-.5-.8 2.53-1.6zm4.24-2.68l-2.54 1.6-.5-.8 2.53-1.6zm4.18-2.8l-2.3 1.6-.2.12-.5-.8.18-.12 2.28-1.58zm4.1-2.86l-2.46 1.72-.54-.78 2.47-1.72zm2.9-2l-1.24.86-.55-.78 1.24-.86z" stroke="#3a414a" stroke-width=".05" fill="#3a414a"/><path d="M-3098.97 144.54l-.02.95-.5-.03v-.94z" fill="#3a414a"/><path stroke="#3a414a" stroke-width=".05" fill="#3a414a"/><path d="M-2454.4 67.5l-5.3-7.62 14.35-4.35z" fill="#3a414a"/><path d="M-2454.42 68.3l-6.05-8.68 16.38-4.97zm-4.52-8.15l4.56 6.53 7.77-10.28z" stroke="#3a414a" stroke-width=".05" fill="#3a414a"/><use xlink:href="#D" transform="matrix(1,0,0,1,-2730.6884509952397,141.4892615535521) translate(0 14.222222222222223)"/><path d="M-3104.48 424l-1.5.03-.02-.95 1.5-.03zm5.02-.1l-3 .06-.03-.95 3.02-.05zm5-.1l-3 .06-.02-.95 3-.04zm5.03-.1l-3 .07-.03-.95 3-.06zm5-.1l-3 .07-.02-.95 3-.06zm5.02-.1l-3 .07-.03-.95 3-.06zm5-.08l-3 .06-.02-.95 3-.06zm5.02-.1l-3 .06-.03-.95 3-.06zm5.02-.1l-3 .06-.03-.95 3.02-.06zm5-.1l-3 .06-.02-.94 3-.06zm5.02-.1l-3 .07-.02-.96 3-.06zm5.02-.1l-3 .07-.03-.96 3-.06zm5-.1l-3 .07v-.96l3-.05zm5.03-.08l-3 .06-.02-.95 3-.06zm5.02-.1l-3 .06-.03-.95 3-.06zm5-.1l-3 .06v-.95l3-.05zm5.03-.1l-3 .07-.03-.94 3-.06zm5-.1l-3 .07v-.94l3-.06zm5.03-.1l-3 .07-.03-.94 3-.06zm5-.08l-3 .05-.02-.94 3-.05zm5.04-.2l-1.97.14-1.05.02-.02-.95 1.03-.02 1.96-.12zm5-.3l-3 .2-.06-.96 3-.18zm5-.3l-3 .18-.05-.95 3-.2zm5.02-.3l-3 .17-.06-.95 3-.18zm5-.32l-3 .18-.06-.95 3-.18zm5-.3l-3 .17-.05-.94 3-.18zm5-.32l-3 .18-.05-.95 3-.18zm5.02-.3l-3 .17-.06-.96 3-.18zm5-.32l-3 .18-.06-.95 3-.18zm5-.3l-3 .17-.05-.95 3-.18zm5.02-.32l-3 .18-.07-.95 3.02-.17zm5-.3l-3 .17-.06-.95 3-.18zm5-.32l-3 .18-.06-.95 3-.2zm5-.3l-3 .17-.05-.95 3-.18zm5.03-.42l-2.2.23-.8.05-.07-.95.8-.05 2.18-.22zm5-.52l-3 .3-.1-.93 3-.32zm5-.52l-3 .3-.1-.93 3-.32zm4.97-.52l-3 .3-.1-.93 3-.32zm5-.52l-3 .3-.1-.94 3-.3zm4.98-.52l-3 .3-.1-.94 3-.3zm5-.52l-3 .3-.1-.94 3-.3zm4.97-.52l-3 .3-.1-.94 3-.3zm5-.52l-3 .3-.1-.94 3-.3zm4.98-.53l-3 .32-.1-.95 3-.3zm5-.52l-3 .32-.1-.95 3-.3zm4.98-.62l-2.34.36-.66.07-.1-.95.64-.07 2.33-.33zm4.97-.72l-2.98.44-.14-.94 2.98-.44zm4.96-.73l-2.97.44-.14-.95 2.97-.44zm4.97-.73l-2.98.44-.15-.94 2.98-.44zm4.96-.73l-2.98.43-.14-.94 3-.45zm4.96-.74l-3 .44-.12-.94 2.97-.44zm4.95-.73l-2.97.44-.14-.94 2.98-.44zm4.97-.73l-2.98.44-.14-.94 2.98-.44zm4.96-.73l-2.98.44-.14-.93 2.98-.44zm4.97-.8l-1.67.32-1.32.18-.14-.94 1.3-.2 1.65-.3zm4.92-.94l-2.95.57-.18-.94 2.96-.56zm4.93-.93l-2.96.56-.17-.94 2.95-.56zm4.93-.94l-2.96.56-.18-.93 2.95-.57zm4.92-.94l-2.95.56-.18-.93 2.96-.56zm4.93-.94l-2.96.57-.17-.94 2.95-.55zm4.93-.93l-2.95.56-.18-.93 2.96-.56zm4.93-.94l-2.95.57-.18-.93 2.96-.56zm4.93-1.03l-2.24.53-.72.13-.17-.93.7-.13 2.2-.52zm4.88-1.14l-2.93.7-.2-.94 2.93-.7zm4.9-1.14l-2.94.67-.22-.92 2.93-.7zm4.87-1.16l-2.92.7-.22-.94 2.93-.68zm4.9-1.14l-2.94.7-.22-.94 2.94-.7zm4.87-1.14l-2.93.68-.2-.92 2.92-.7zm4.9-1.15l-2.94.7-.22-.93 2.94-.68zm4.86-1.23l-2.35.65-.57.14-.2-.93.54-.13 2.34-.65zm4.83-1.35l-2.9.8-.25-.9 2.9-.82zm4.84-1.35l-2.9.8-.26-.9 2.9-.8zm4.83-1.35l-2.9.8-.26-.9 2.9-.8zm4.83-1.34l-2.9.8-.26-.9 2.9-.82zm4.83-1.35l-2.9.8-.27-.9 2.9-.8zm4.83-1.4l-.98.32-1.93.54-.26-.92 1.9-.54.97-.3zm4.76-1.54l-2.87.92-.3-.9 2.87-.93zm4.76-1.56l-2.86.93-.3-.9 2.87-.93zm4.78-1.55l-2.87.92-.3-.9 2.87-.93zm4.76-1.56l-2.86.93-.3-.9 2.87-.93zm4.78-1.54l-2.87.93-.28-.9 2.86-.94zm4.75-1.65l-2.13.8-.72.23-.3-.9.7-.23 2.12-.8zm4.7-1.75l-2.82 1.05-.32-.9 2.82-1.04zm4.7-1.74l-2.82 1.04-.32-.88 2.82-1.05zm4.7-1.75l-2.82 1.06-.32-.9 2.83-1.04zm4.7-1.74l-2.8 1.05-.35-.88 2.83-1.05zm4.72-1.77l-.56.22-2.28.84-.33-.9 2.24-.82.54-.23zm4.62-1.96l-2.77 1.17-.37-.87 2.77-1.16zm4.62-1.94l-2.78 1.17-.37-.88 2.78-1.18zm4.62-1.94l-2.78 1.16-.36-.87 2.77-1.17zm4.62-1.94l-2.77 1.16-.37-.88 2.77-1.16zm4.63-1.98l-.53.26-2.25.94-.38-.88 2.23-.93.52-.25zm4.54-2.13l-2.7 1.3-.42-.87 2.73-1.28zm4.55-2.13l-2.72 1.3-.4-.88 2.72-1.3zm4.54-2.13l-2.74 1.28-.4-.86 2.72-1.28zm4.53-2.13l-2.73 1.3-.4-.87 2.72-1.3zm4.52-2.2l-1.7.87-1 .48-.4-.86.98-.48 1.68-.87zm4.44-2.33l-2.68 1.4-.44-.85 2.67-1.4zm4.43-2.33l-2.66 1.4-.44-.84 2.66-1.4zm1.78-.93l-.38-.74h1.83zm37.07-22.07h-.93l.66-.42zm4.47-2.3l-2.54 1.6-.5-.8 2.53-1.6zm4.22-2.75l-1 .7-1.52.97-.5-.8 1.5-.96.98-.7zm4.12-2.86l-2.47 1.72-.53-.78 2.47-1.72zm4.12-2.86l-2.47 1.72-.54-.78 2.46-1.72zm4.12-2.86l-2.47 1.7-.54-.76 2.48-1.72zm4.12-2.9l-.36.28-2.1 1.47-.56-.78 2.1-1.46.35-.25zm4-3.02l-2.4 1.82-.57-.76 2.4-1.82zm4-3.03l-2.4 1.8-.58-.74 2.4-1.8zm4-3.04l-2.4 1.83-.58-.75 2.4-1.82zm3.98-3.02l-2.4 1.82-.57-.76 2.4-1.8zm3.88-3.2l-2.32 1.9-.6-.72 2.32-1.92zm3.87-3.2l-2.32 1.92-.6-.74 2.3-1.92zm3.86-3.2l-2.32 1.92-.6-.73 2.33-1.92zm3.87-3.2l-2.32 1.92-.6-.73 2.3-1.92zm3.75-3.35l-2.24 2-.62-.7 2.23-2zm3.72-3.36l-2.23 2.02-.64-.72 2.24-2zm3.73-3.35l-2.24 2-.63-.7 2.24-2zm3.73-3.36l-2.24 2-.64-.7 2.23-2zm3.62-3.5l-2.15 2.1-.67-.67 2.15-2.12zm3.58-3.5l-2.15 2.1-.67-.68 2.16-2.1zm3.58-3.52l-2.14 2.1-.66-.67 2.15-2.1zm3.6-3.5l-2.15 2.1-.67-.68 2.15-2.1zm3.48-3.64l-2.06 2.2-.7-.66 2.06-2.2zm3.43-3.66l-2.05 2.2-.7-.66 2.07-2.2zm3.44-3.66l-2.06 2.2-.7-.65 2.07-2.2zm3.43-3.65l-2.05 2.2-.7-.66 2.06-2.2zm3.36-3.76l-1.97 2.28-.72-.62 1.97-2.28zm3.27-3.8l-1.96 2.28-.72-.62 1.96-2.28zm3.28-3.8l-1.97 2.28-.7-.6 1.96-2.3zm3.27-3.8l-1.96 2.3-.73-.63 1.97-2.28zm3.23-3.85l-1.2 1.52-.72.82-.7-.62.68-.8 1.2-1.5zm3.12-3.93l-1.87 2.34-.75-.6 1.87-2.34zm3.1-3.94l-1.86 2.35-.74-.58 1.87-2.35zm3.13-3.93l-1.87 2.35-.75-.6 1.88-2.34zm3.12-3.96l-.12.17-1.76 2.2-.74-.58 1.74-2.2.1-.14zm2.94-4.05l-1.77 2.43-.77-.56 1.76-2.44zm2.94-4.06l-1.77 2.43-.77-.56 1.77-2.44zm2.95-4.06l-1.78 2.44-.77-.56 1.77-2.44zm2.93-4.06l-1.76 2.44-.77-.56 1.77-2.44zm2.87-4.13l-1.5 2.28-.2.24-.75-.56.16-.22 1.5-2.26zm2.77-4.17l-1.66 2.5-.78-.52 1.66-2.5zm2.78-4.18l-1.67 2.5-.8-.52 1.68-2.5zm2.77-4.18l-1.66 2.5-.8-.52 1.67-2.5zm2.78-4.18l-1.67 2.5-.8-.53 1.68-2.5zm2.63-4.3l-1.56 2.58-.8-.5 1.55-2.57zm2.6-4.3l-1.56 2.6-.8-.5 1.55-2.58zm2.6-4.28l-1.56 2.58-.82-.5 1.56-2.57zm2.6-4.3l-1.57 2.6-.8-.5 1.55-2.58zm2.6-4.28l-1.57 2.58-.8-.5 1.55-2.57zm2.42-4.4l-1.45 2.63-.83-.46 1.45-2.62zm2.42-4.4l-1.45 2.64-.83-.46 1.43-2.64zm2.4-4.4l-1.44 2.64-.83-.46 1.45-2.63zm2.43-4.4l-1.45 2.65-.83-.47 1.45-2.64zm2.4-4.4l-1.44 2.65-.83-.47 1.45-2.63zm2.3-4.47l-1.34 2.7-.85-.43 1.36-2.7zm1.57-3.14l-.67 1.35-.85-.42.68-1.35z" stroke="#3a414a" stroke-width=".05" fill="#3a414a"/><path d="M-3105.97 424.03h-.54v-.94l.5-.02z" fill="#3a414a"/><path stroke="#3a414a" stroke-width=".05" fill="#3a414a"/><path d="M-2399.08 109.95l-8.3-4.15 10.53-10.7z" fill="#3a414a"/><path d="M-2398.7 110.66l-9.47-4.73 12-12.2zm-7.88-5l7.13 3.57 1.9-12.74z" stroke="#3a414a" stroke-width=".05" fill="#3a414a"/><use xlink:href="#D" transform="matrix(1,0,0,1,-2655.593928480067,314.9289962713948) translate(0 14.222222222222223)"/><path d="M-3213.48 637.5l-.03 1.5h-.97l.04-1.5zm.1-5l-.06 3-.95-.02.07-3zm.3-4.98l-.18 3-.95-.06.17-3zm.45-4.97l-.3 3-.96-.1.33-3zm.62-4.94l-.36 2.36-.06.6-.94-.1.06-.62.35-2.37zm.8-4.92l-.36 1.9-.16 1.04-.94-.13.16-1.1.36-1.9zm1-4.88l-.4 1.8-.23 1.12-.93-.18.22-1.14.42-1.8zm1.23-4.83l-.56 2-.2.88-.93-.22.2-.9.57-2.02zm1.44-4.78l-.8 2.44-.1.4-.92-.26.12-.4.8-2.48zm1.67-4.7l-1.04 2.8-.9-.32 1.05-2.82zm1.9-4.6l-.06.15-1.1 2.6-.88-.36 1.1-2.64.08-.16zm2.17-4.48l-.57 1.1-.74 1.57-.87-.4.75-1.6.6-1.12zm2.4-4.38l-1.2 2.1-.26.5-.84-.44.26-.5 1.23-2.13zm2.64-4.24l-1.6 2.54-.82-.5 1.6-2.54zm2.86-4.05l-.64.84-1.1 1.57-.78-.54 1.12-1.6.65-.86zm3.1-3.92l-1.42 1.7-.47.62-.74-.57.48-.63 1.42-1.72zm3.28-3.75l-2 2.23-.72-.62 2-2.23zm3.46-3.58l-2.1 2.14-.68-.66 2.1-2.14zm3.64-3.4l-.42.38-1.77 1.66-.66-.7 1.8-1.67.42-.38zm3.8-3.22l-.65.52-1.63 1.4-.62-.7 1.64-1.44.67-.52zm3.93-3.07l-.58.43-1.77 1.4-.6-.74 1.8-1.42.6-.44zm4.05-2.92l-.1.07-2.32 1.68-.56-.76 2.34-1.7.12-.08zm4.17-2.76l-2.5 1.66-.53-.8 2.5-1.66zm4.24-2.63l-2.57 1.55-.5-.82 2.57-1.55zm4.3-2.53l-1.34.73-1.25.76-.5-.82 1.28-.76 1.35-.75zm4.4-2.4l-2.64 1.43-.46-.83 2.63-1.44zm4.4-2.3l-2.4 1.18-.25.14-.45-.84.27-.15 2.43-1.2zm4.5-2.23l-2.7 1.33-.4-.85 2.68-1.33zm4.5-2.17l-.9.4-1.8.88-.42-.85 1.82-.9.9-.4zm4.57-2.03l-2.75 1.22-.38-.87 2.75-1.23zm4.58-2.02l-2.74 1.2-.38-.85 2.75-1.22zm4.6-2.02l-2.76 1.2-.38-.86 2.75-1.2zm4.58-2.02l-2.75 1.2-.4-.86 2.76-1.2zm4.6-1.96L-3118 522l-.36-.88 2.76-1.18zm4.6-1.97l-2.76 1.18-.37-.87 2.76-1.18zm4.6-1.96l-2.75 1.17-.38-.88 2.77-1.18zm4.62-1.97l-2.77 1.18-.37-.87 2.76-1.18zm4.6-1.96l-2.76 1.17-.37-.87 2.76-1.18zm4.6-1.97l-2.75 1.18-.38-.87 2.77-1.17zm4.62-1.96l-2.77 1.18-.37-.88 2.76-1.18zm4.6-1.97l-2.76 1.18-.37-.87 2.75-1.18zm4.6-1.96l-2.75 1.2-.38-.88 2.76-1.18zm4.62-1.95l-2.77 1.18-.37-.88 2.76-1.18zm4.6-2.03l-1.28.6-1.48.64-.37-.87 1.47-.63 1.26-.6zm4.5-2.2l-.8.43-1.9.9-.4-.85 1.88-.9.8-.42zm4.47-2.32l-.6.34-2.07 1.07-.43-.83 2.06-1.07.58-.33zm4.3-2.44l-2.55 1.45-.47-.82 2.54-1.44zm4.32-2.7l-2.55 1.6-.5-.82 2.54-1.6zm4.17-2.82l-2.5 1.7-.53-.78 2.48-1.7zm4.07-2.93l-1.9 1.45-.53.36-.54-.78.5-.35 1.9-1.42zm4-3l-2.4 1.8-.57-.75 2.4-1.8zm3.9-3.17l-2.32 1.9-.6-.74 2.32-1.9zm3.86-3.23l-1 .9-1.3 1.06-.6-.74 1.27-1.04 1-.9zm3.74-3.33l-2.25 2-.63-.7 2.24-2zm3.72-3.38l-.78.75-1.46 1.3-.63-.72 1.44-1.28.76-.74zm3.6-3.5l-2.17 2.1-.66-.68 2.16-2.1zm3.58-3.48l-2.15 2.1-.67-.7 2.16-2.08zm3.52-3.58l-2.07 2.18-.68-.66 2.07-2.18zm3.45-3.64l-2.07 2.18-.7-.65 2.08-2.18zm3.44-3.63l-2.08 2.18-.7-.66 2.08-2.2zm3.43-3.64l-2.06 2.18-.7-.64 2.07-2.18zm3.4-3.7l-1.88 2.1-.14.15-.68-.66.13-.14 1.88-2.08zm3.36-3.7l-2.02 2.22-.7-.63 2-2.24zm3.34-3.73l-2 2.23-.72-.63 2.02-2.24zm3.36-3.72l-2.02 2.23-.7-.62 2-2.23zm3.35-3.7l-2 2.22-.72-.64 2-2.23zm3.35-3.73l-2 2.23-.7-.64 2-2.23zm3.36-3.72l-2.02 2.23-.7-.64 2-2.23zm3.35-3.72l-2 2.24-.7-.64 2-2.23zm3.36-3.7l-2 2.22-.7-.63 2-2.25zm3.36-3.73l-2 2.23-.72-.63 2-2.23zm3.35-3.72l-2 2.24-.72-.65 2.02-2.23zm3.36-3.7l-2.02 2.22-.7-.64 2.02-2.23zm3.35-3.73l-2 2.23-.72-.64 2-2.22zm3.35-3.72l-2 2.23-.7-.64 2-2.24zm3.36-3.72l-2.03 2.23-.7-.63 2-2.23zm3.34-3.72l-2 2.23-.72-.64 2-2.24zm3.43-3.6l-1.4 1.34-.7.77-.7-.63.72-.8 1.4-1.37zm3.6-3.5l-2.16 2.1-.66-.68 2.16-2.1zm3.6-3.47l-2.17 2.08-.66-.68 2.16-2.1zm3.64-3.4l-1.8 1.6-.4.4-.66-.7.42-.4 1.82-1.62zm3.75-3.34l-2.24 2-.63-.7 2.25-2zm3.75-3.3l-.64.53-1.6 1.43-.65-.7 1.64-1.46.66-.54zm3.87-3.16l-2.32 1.9-.6-.73 2.32-1.9zm3.9-3.13l-.78.6-1.58 1.26-.6-.73 1.58-1.3.8-.6zm4-3l-2.4 1.8-.58-.76 2.4-1.8zm4.04-2.9l-1.86 1.27-.57.43-.57-.76.6-.43 1.87-1.3zm4.14-2.85l-2.48 1.7-.53-.78 2.47-1.7zm4.2-2.66l-2.53 1.6-.5-.82 2.55-1.6zm4.3-2.57l-1.9 1.05-.7.44-.5-.8.73-.46 1.9-1.08zm4.33-2.47l-.34.17-2.26 1.3-.47-.83 2.28-1.3.35-.18zm4.45-2.3l-2.67 1.38-.43-.83 2.67-1.38zm4.5-2.13l-2.72 1.27-.4-.87 2.73-1.26zm4.58-1.98l-2.6 1.08-.15.06-.4-.86.15-.07 2.64-1.1zm4.64-1.84l-1.8.66-1 .4-.35-.87 1-.42 1.8-.66zm4.7-1.67l-1.08.36-1.74.64-.32-.9 1.75-.64 1.1-.35zm4.76-1.54l-2.23.73-.63.2-.3-.9.63-.2 2.24-.75zm4.76-1.57l-2.86.93-.3-.9 2.86-.94zm4.76-1.57l-2.86.94-.3-.9 2.86-.94zm4.76-1.56l-2.86.94-.3-.9 2.86-.93zm4.75-1.56l-2.85.95-.3-.9 2.86-.94zm4.76-1.55l-2.86.94-.3-.92 2.86-.93zm4.75-1.56l-2.86.93-.3-.9 2.85-.94zm4.76-1.57l-2.85.94-.3-.9 2.86-.94zm4.77-1.56l-2.86.94-.28-.9 2.85-.93zm4.75-1.56l-2.85.94-.3-.9 2.86-.94zm4.76-1.55l-2.85.93-.3-.9 2.86-.94zm4.76-1.56l-2.86.92-.3-.9 2.86-.94zm4.76-1.57l-2.86.93-.3-.9 2.86-.94zm4.76-1.57l-2.86.94-.3-.9 2.86-.94zm4.75-1.56l-2.84.94-.3-.9 2.86-.94zm4.77-1.56l-2.85.94-.3-.9 2.86-.94zm4.76-1.56l-2.86.94-.3-.9 2.86-.94zm4.76-1.56l-2.87.94-.3-.9 2.86-.94zm4.7-1.76l-2.8 1.06-.35-.88 2.8-1.07zm4.68-1.78l-2.8 1.07-.35-.9 2.8-1.06zm4.68-1.77l-2.8 1.07-.34-.9 2.8-1.05zm4.68-1.77l-2.8 1.07-.34-.9 2.8-1.06zm4.7-1.78l-2.82 1.07-.34-.9 2.8-1.05zm1.86-.7l-.1-.28h.82zm53.5-22.67l-2.22 1.06h-.6l-.3-.62 2.7-1.3zm4.5-2.17l-2.7 1.3-.4-.85 2.7-1.3zm4.53-2.15l-2.7 1.3-.42-.86 2.72-1.3zm4.52-2.17l-2.7 1.3-.42-.86 2.7-1.3zm4.47-2.28l-2.65 1.4-.45-.83 2.66-1.4zm4.43-2.35l-2.66 1.4-.45-.83 2.65-1.4zm4.4-2.36l-2.64 1.4-.43-.83 2.65-1.42zm4.43-2.36l-2.65 1.4-.44-.83 2.64-1.4zm4.43-2.35l-2.65 1.4-.44-.84 2.66-1.4zm4.37-2.5l-2.6 1.5-.48-.8 2.58-1.53zm4.3-2.55l-2.58 1.52-.5-.82 2.6-1.52zm4.33-2.54l-2.6 1.53-.47-.82 2.6-1.5zm4.32-2.52l-2.6 1.52-.47-.82 2.6-1.52zm4.3-2.62l-1.55 1-1.02.6-.5-.82 1.02-.6 1.53-.97zm4.2-2.7l-2.52 1.62-.52-.8 2.53-1.63zm4.2-2.72l-2.52 1.62-.5-.8 2.5-1.62zm4.22-2.72l-2.53 1.63-.5-.8 2.52-1.63zm4.2-2.75l-1.03.7-1.48.96-.52-.8 1.5-.95 1-.7zm4.17-2.75l-2.5 1.64-.53-.8 2.52-1.64zm4.2-2.74l-2.52 1.64-.52-.8 2.52-1.64zm4.2-2.74l-2.52 1.65-.52-.8 2.5-1.65zm4.2-2.73l-2.53 1.65-.52-.8 2.52-1.64zm4.2-2.64l-1.8 1.08-.74.47-.5-.78.73-.5 1.83-1.08zm4.32-2.55l-2.58 1.54-.5-.82 2.6-1.53zm4.3-2.54l-2.57 1.53-.5-.83 2.6-1.53zm4.32-2.55l-2.58 1.54-.5-.82 2.6-1.53zm4.3-2.54l-2.57 1.53-.5-.83 2.6-1.53zm4.32-2.55l-2.6 1.54-.47-.8 2.58-1.54zm4.3-2.54l-2.57 1.53-.5-.83 2.6-1.53zm4.32-2.53l-.98.56-1.6.94-.5-.8 1.63-.97.98-.56zm4.34-2.5l-2.6 1.5-.47-.82 2.6-1.5zm4.35-2.5l-2.6 1.5-.48-.82 2.6-1.5zm4.34-2.5l-2.6 1.5-.47-.82 2.6-1.48zm4.35-2.48l-2.6 1.5-.48-.83 2.6-1.5zm4.34-2.5l-2.6 1.5-.5-.83 2.62-1.5zm4.33-2.5l-2.6 1.5-.48-.82 2.6-1.5zm4.34-2.5l-2.6 1.5-.48-.82 2.6-1.5zm4.34-2.5l-2.6 1.5-.47-.8 2.6-1.5zm4.36-2.48l-2.6 1.5-.48-.83 2.6-1.5zm4.34-2.5l-2.6 1.5-.48-.83 2.6-1.5zm4.34-2.5l-2.6 1.5-.48-.82 2.6-1.5zm4.34-2.5l-2.6 1.5-.48-.82 2.6-1.5zm4.34-2.5l-2.6 1.5-.48-.8 2.6-1.5zm4.34-2.48l-2.6 1.5-.48-.84 2.6-1.5zm4.34-2.5l-2.6 1.5-.48-.83 2.6-1.5zm4.35-2.54l-.37.25-2.24 1.3-.47-.83 2.2-1.27.36-.23zm4.2-2.74l-2.52 1.65-.52-.8 2.53-1.64zm4.2-2.73l-2.53 1.63-.5-.8 2.5-1.64zm4.18-2.75l-2.5 1.64-.53-.8 2.5-1.64zm4.2-2.73l-2.52 1.64-.5-.8 2.5-1.64zm4.1-2.9l-2.43 1.76-.55-.78 2.44-1.74zm4.1-2.9l-2.46 1.75-.55-.78 2.45-1.75zm4.06-2.9l-2.45 1.73-.55-.77 2.44-1.75zm4.04-3l-1.38 1.08-1.04.74-.55-.77 1.02-.73 1.36-1.06zm3.95-3.07l-2.38 1.84-.6-.76 2.38-1.84zm3.93-3.1l-2.36 1.86-.6-.74 2.38-1.84zm3.92-3.14l-1.35 1.17-1 .76-.57-.75.97-.75 1.34-1.14zm3.82-3.23l-2.3 1.95-.6-.73 2.28-1.95zm3.8-3.24l-2.28 1.94-.62-.72 2.3-1.95zm3.75-3.36l-2.2 2.04-.65-.7 2.2-2.03zm3.68-3.4l-2.2 2.04-.65-.7 2.2-2.03zm3.68-3.42l-.28.28-1.93 1.78-.64-.7 1.9-1.76.28-.27zm3.53-3.56l-2.1 2.12-.68-.67 2.12-2.13zm3.54-3.56l-2.12 2.13-.67-.67 2.1-2.13zm3.45-3.66l-2.04 2.22-.7-.64 2.02-2.22zm3.36-3.7l-2.02 2.22-.7-.64 2.02-2.22zm3.35-3.74l-.84 1-1.15 1.27-.7-.63 1.14-1.24.85-1zm2.27-2.7l-.97 1.16-.73-.6.97-1.16z" stroke="#3a414a" stroke-width=".05" fill="#3a414a"/><path d="M-3213.5 639l-.03.5h-.94v-.52z" fill="#3a414a"/><path stroke="#3a414a" stroke-width=".05" fill="#3a414a"/><path d="M-2426.07 94.56l-7.23-5.8 12.55-8.22z" fill="#3a414a"/><path d="M-2425.86 95.34l-8.25-6.62 14.3-9.38zm-6.63-6.54l6.22 4.98 4.56-12.05z" stroke="#3a414a" stroke-width=".05" fill="#3a414a"/><use xlink:href="#D" transform="matrix(1,0,0,1,-2786.7707661341533,276.13878462496825) translate(0 14.222222222222223)"/><path d="M-3212.48 1017.5l-.03 1.5-.97-.02.04-1.5zm.1-5l-.06 3-.95-.02.07-3zm.28-4.97l-.2 3-.94-.06.2-3zm.4-4.96l-.22 2.15-.05.8-.95-.04.05-.84.23-2.17zm.55-4.95l-.1.64-.24 2.32-.93-.1.24-2.34.1-.66zm.73-4.95l-.44 2.97-.94-.14.44-2.97zm.9-4.9l-.55 2.95-.93-.18.56-2.94zm1.1-4.85l-.68 2.92-.92-.22.68-2.92zm1.3-4.8l-.8 2.88-.93-.26.8-2.9zm1.47-4.77l-.92 2.86-.9-.3.92-2.84zm1.7-4.68l-1.05 2.8-.9-.32 1.05-2.8zm1.9-4.6l-1.17 2.76-.88-.37 1.16-2.77zm2.1-4.5l-.12.22-1.16 2.46-.86-.4 1.18-2.5.12-.23zm2.34-4.4l-.5.85-.93 1.78-.84-.44.94-1.8.5-.86zm2.54-4.27l-.94 1.48-.6 1.07-.84-.48.63-1.08.94-1.5zm2.76-4.14l-1.47 2.1-.22.35-.8-.5.24-.36 1.48-2.13zm2.96-4l-1.82 2.38-.75-.57 1.8-2.4zm3.15-3.87l-1.9 2.3-.74-.6 1.9-2.3zm3.35-3.67l-.5.5-1.52 1.7-.7-.64 1.54-1.73.5-.5zm3.52-3.52l-.95.9-1.17 1.2-.68-.67 1.18-1.2.97-.9zm3.68-3.35l-1.36 1.18-.87.8-.65-.68.87-.82 1.38-1.2zm3.83-3.18l-1.67 1.33-.63.55-.62-.72.65-.57 1.7-1.34zm3.96-3.02l-1.84 1.34-.55.43-.6-.75.58-.45 1.85-1.35zm4.08-2.85l-1.8 1.2-.66.48-.56-.77.68-.48 1.82-1.2zm4.2-2.7l-1.5.92-1.03.67-.54-.8 1.04-.68 1.52-.93zm4.28-2.53l-.88.48-1.7 1.02-.5-.8 1.72-1.05.9-.5zm4.38-2.4l-2.63 1.43-.46-.83 2.62-1.44zm4.46-2.23l-2.7 1.33-.4-.85 2.67-1.33zm4.5-2.1l-2.73 1.22-.37-.87 2.74-1.23zm4.57-2l-.62.25-2.1.93-.4-.87 2.13-.94.67-.26zm4.66-1.84l-2.8 1.1-.33-.88 2.8-1.1zm4.67-1.73l-2.34.82-.47.17-.35-.88.48-.2 2.36-.83zm4.73-1.64l-2.84.98-.3-.88 2.82-1zm4.74-1.5l-2.87.86-.27-.92 2.87-.87zm4.8-1.45l-2.88.87-.28-.9 2.88-.88zm4.8-1.33l-2.6.66-.3.1-.27-.9.32-.1 2.6-.67zm4.83-1.24l-2.9.75-.24-.92 2.9-.74zm4.83-1.2l-.32.05-2.57.66-.24-.9 2.6-.67.34-.07zm4.9-1.05l-2.94.62-.2-.93 2.94-.62zm4.9-1.03l-2.95.62-.2-.93 2.95-.62zm4.86-1.02l-.52.1-2.4.5-.2-.93 2.43-.5.53-.1zm4.93-.82l-2.95.5-.16-.94 2.96-.5zm4.93-.84l-2.95.5-.16-.93 2.96-.5zm4.94-.82l-2.96.5-.16-.94 2.96-.5zm4.92-.74l-2.1.26-.85.14-.17-.93.87-.15 2.12-.26zm4.96-.62l-2.97.37-.12-.94 2.98-.4zm4.96-.62l-2.97.37-.13-.93 2.98-.38zm4.97-.63l-2.98.4-.12-.96 2.98-.37zm4.96-.6l-3 .37-.1-.95 2.97-.37zm4.94-.5l-2.83.23h-.13l-.12-.93.17-.02 2.84-.23zm5-.42l-3 .25-.08-.95 3-.24zm4.97-.4l-2.98.24-.08-.94 3-.25zm5-.4l-3 .23-.08-.94 3-.24zm4.98-.42l-3 .24-.07-.95 3-.24zm4.98-.4l-3 .23-.07-.95 2.98-.25zm4.98-.42l-3 .24-.06-.94 3-.25zm4.98-.35l-1.65.06-1.33.1-.08-.93 1.35-.1 1.67-.1zm5-.24l-3 .14-.05-.95 3-.14zm5-.23l-3 .13-.06-.94 3-.14zm4.98-.23l-3 .13-.04-.94 3-.15zm5-.23l-3 .13-.04-.95 3-.13zm5-.23l-3 .13-.05-.94 3-.14zm5-.24l-3 .14-.05-.94 3-.14zm4.98-.23l-3 .14-.04-.94 3-.13zm5-.23l-3 .14-.04-.95 3-.13zm5-.23l-3 .15-.05-.95 3-.13zm5-.22l-3 .14-.05-.95 3-.14zm4.98-.23l-3 .14-.04-.96 3-.14zm5-.23l-3 .14-.04-.95 3-.13zm5-.23l-3 .13-.05-.95 3-.14zm5-.24l-3 .14-.05-.95 3-.14zm4.98-.23l-3 .14-.04-.95 3-.14zm5-.23l-3 .14-.04-.95 3-.15zm5-.23l-3 .14-.05-.94 3-.14zm5-.23l-3 .14-.05-.95 3-.14zm4.98-.23l-3 .15-.04-.95 3-.14zm5-.22l-3 .14-.04-.95 3-.14zm5-.23l-3 .14-.05-.96 3-.14zm5-.23l-3 .14-.05-.95 3-.13zm5-.23l-3 .13-.06-.95 3-.14zm4.98-.24l-3 .13-.04-.95 3-.14zm5-.23l-3 .13-.05-.94 3-.14zm5-.23l-3 .13-.05-.94 3-.15zm5-.23l-3 .13-.05-.95 3-.13zm4.98-.24l-3 .14-.04-.95 3-.13zm5-.23l-3 .14-.04-.95 3-.14zm5-.23l-3 .14-.05-.94 3-.13zm5-.23l-3 .14-.05-.95 3-.13zm4.98-.23l-3 .15-.04-.95 3-.14zm5-.22l-3 .14-.04-.95 3-.14zm5-.23l-3 .14-.05-.96 3-.14zm5-.23l-3 .14-.05-.95 3-.13zm4.98-.23l-3 .13-.04-.95 3-.14zm5-.24l-3 .14-.04-.95 3-.14zm5-.23l-3 .14-.05-.95 3-.14zm5-.23l-3 .14-.05-.95 3-.15zm4.98-.23l-3 .14-.04-.94 3-.14zm5-.23l-3 .14-.04-.95 3-.14zm5-.23l-3 .15-.05-.95 3-.14zm5-.22l-3 .14-.05-.95 3-.14zm5-.23l-3 .14-.06-.96 3-.14zm4.98-.23l-3 .14-.04-.95 3-.13zm5-.23l-3 .13-.05-.95 3-.14zm5-.24l-3 .13-.05-.95 3-.14zm5-.23l-3 .13-.05-.95 3-.12zm5-.33l-1.14.15-1.88.08-.04-.95 1.84-.08 1.1-.14zm4.97-.62l-2.97.37-.12-.94 2.97-.36zm4.97-.62l-2.98.37-.12-.94 2.98-.38zm4.96-.62l-2.98.37-.12-.93 2.98-.38zm4.96-.63l-2.98.4-.12-.96 2.98-.37zm4.96-.6l-2.98.37-.12-.95 2.98-.37zm4.96-.63l-2.98.37-.1-.94 2.96-.37zm4.97-.7l-2.02.33-.96.12-.12-.94.94-.12 2-.34zm4.93-.84l-2.96.5-.15-.94 2.95-.5zm4.93-.83l-2.95.5-.15-.94 2.95-.5zm4.94-.83l-2.95.5-.17-.94 2.96-.5zm4.93-.83l-2.95.5-.16-.94 2.96-.5zm4.94-.83l-2.95.5-.16-.93 2.95-.5zm4.92-1.02l-2.93.63-.2-.92 2.92-.63zm4.9-1.03l-2.94.62-.2-.93 2.93-.62zm4.88-1.04l-2.93.63-.2-.93 2.94-.62zm4.9-1.03l-2.94.62-.2-.93 2.94-.63zm4.9-1.1l-1.38.35-1.57.34-.2-.93 1.55-.33 1.36-.35zm4.84-1.24l-2.9.75-.24-.92 2.9-.75zm4.84-1.24l-2.9.74-.24-.93 2.9-.73zm4.85-1.25l-2.9.74-.25-.93 2.9-.74zm4.85-1.3l-1.2.36-1.72.45-.23-.92 1.7-.43 1.17-.36zm4.78-1.44l-2.87.88-.28-.9 2.87-.88zm4.8-1.43l-2.88.86-.28-.9 2.88-.87zm4.78-1.45l-2.87.87-.28-.92 2.86-.87zm4.76-1.58l-2.83 1-.3-.9 2.82-1zm4.73-1.64l-2.84 1-.32-.9 2.83-1zm4.72-1.64l-2.84.98-.3-.9 2.84-.98zm4.7-1.74l-1.95.78-.86.3-.3-.9.83-.3 1.94-.76zm4.66-1.84l-2.78 1.1-.35-.88 2.8-1.1zm4.66-1.83l-2.8 1.1-.34-.88 2.8-1.1zm4.63-1.94l-2.08.93-.7.28-.35-.87.68-.27 2.05-.92zm4.56-2.02l-2.74 1.22-.4-.87 2.75-1.22zm4.57-2.03l-2.74 1.22-.4-.87 2.74-1.22zm4.53-2.16l-2.7 1.3-.4-.85 2.68-1.3zm4.5-2.2l-2.7 1.3-.42-.84 2.7-1.32zm4.43-2.34l-2.65 1.4-.45-.82 2.64-1.42zm4.4-2.36l-2.64 1.4-.45-.82 2.65-1.42zm4.4-2.42l-1.05.62-1.6.85-.44-.84 1.6-.83 1.02-.6zm4.3-2.54l-2.58 1.52-.48-.82 2.58-1.52zm4.3-2.55l-2.57 1.52-.5-.82 2.6-1.52zm4.26-2.68l-2.52 1.63-.5-.8 2.5-1.63zm4.2-2.72l-2.52 1.63-.52-.8 2.52-1.63zm4.2-2.74l-.2.14-2.33 1.5-.52-.8 2.32-1.5.2-.12zm4.08-2.9l-2.45 1.74-.56-.78 2.45-1.73zm4.07-2.9l-2.43 1.74-.55-.77 2.44-1.74zm4.06-2.96l-1.46 1.13-.96.68-.55-.77.93-.66 1.45-1.13zm3.95-3.07l-2.36 1.84-.58-.75 2.37-1.84zm3.96-3.06l-2.37 1.84-.6-.74 2.38-1.84zm3.9-3.18l-2.3 1.93-.6-.73 2.28-1.93zm3.8-3.23l-2.28 1.93-.6-.72 2.28-1.94zm3.83-3.23l-2.3 1.94-.6-.73 2.28-1.94zm3.72-3.36l-2.2 2.03-.65-.7 2.2-2.02zm3.68-3.38l-2.2 2.03-.65-.7 2.2-2.03zm3.7-3.4l-2.22 2.04-.65-.7 2.2-2.03zm3.56-3.5l-2.12 2.1-.67-.66 2.12-2.12zm3.54-3.54l-2.12 2.12-.67-.67 2.13-2.12zm3.54-3.54l-2.12 2.12-.68-.67 2.13-2.12zm3.44-3.65l-2.03 2.2-.7-.64 2.03-2.2zm3.38-3.68l-2.03 2.2-.7-.65 2.04-2.2zm3.4-3.7l-2.04 2.22-.7-.65 2.03-2.2zm3.3-3.75l-1.53 1.82-.43.47-.7-.65.42-.46 1.53-1.8zm3.24-3.82l-1.93 2.3-.73-.62 1.94-2.28zm3.23-3.82l-1.94 2.3-.73-.6 1.94-2.3zm3.23-3.83l-.15.2-1.78 2.1-.72-.6 1.77-2.1.14-.18zm3.07-3.95l-1.84 2.37-.76-.6 1.84-2.36zm3.07-3.95l-1.84 2.37-.75-.58 1.85-2.37zm3.06-3.95l-1.84 2.37-.75-.6 1.84-2.37zm3-4.02l-1.17 1.67-.6.77-.76-.6.58-.74 1.18-1.65zm2.9-4.07l-1.73 2.44-.77-.55 1.73-2.45zm2.9-4.08l-1.73 2.44-.78-.56 1.74-2.44zm2.9-4.08l-1.73 2.45-.78-.55 1.74-2.45zm2.82-4.15l-1.4 2.17-.26.34-.77-.55.24-.34 1.4-2.16zm2.73-4.2l-1.63 2.52-.8-.5 1.64-2.53zm2.73-4.2l-1.63 2.53-.8-.52 1.63-2.5zm2.73-4.18l-1.64 2.52-.8-.52 1.64-2.52zm2.67-4.25l-.85 1.43-.74 1.13-.8-.5.73-1.13.84-1.42zm2.55-4.3l-1.53 2.57-.82-.48 1.53-2.6zm2.54-4.3l-1.53 2.57-.82-.5 1.53-2.57zm1.02-1.74l-.82-.48.58-.97h1.1zm13.57-24.5l-.9 1.72h-1.1l1.18-2.18zm2.38-4.4l-1.42 2.63-.84-.46 1.42-2.64zm2.2-4.52l-1.3 2.7-.86-.4 1.3-2.7zm2.18-4.5l-1.3 2.7-.86-.4 1.3-2.72zm2.18-4.5l-1.3 2.7-.86-.42 1.3-2.7zm2.18-4.5l-1.3 2.7-.86-.42 1.3-2.7zm2.17-4.5l-1.3 2.7-.87-.42 1.3-2.7zm2.1-4.57l-.97 2.22-.27.53-.85-.4.26-.53.95-2.2zm1.97-4.6l-1.2 2.76-.86-.37 1.2-2.76zm2-4.58l-1.2 2.75-.87-.38 1.2-2.76zm1.98-4.6l-1.2 2.76-.87-.38 1.2-2.75zm1.98-4.6l-1.2 2.77-.86-.38 1.2-2.76zm2-4.58l-1.2 2.76-.88-.38 1.2-2.75zm1.88-4.65l-.95 2.5-.14.32-.86-.4.13-.3.95-2.47zm1.8-4.66l-1.07 2.8-.9-.33 1.08-2.8zm1.8-4.66l-1.08 2.8-.9-.34 1.1-2.8zm1.8-4.67l-1.1 2.8-.88-.34 1.08-2.8zm1.78-4.67l-1.08 2.8-.88-.34 1.07-2.8zm1.8-4.67l-1.1 2.8-.87-.34 1.08-2.8zm1.78-4.67l-1.07 2.8-.9-.33 1.08-2.8zm1.62-4.75l-.96 2.86-.9-.3.96-2.85zm1.6-4.73l-.96 2.85-.9-.3.95-2.85zm1.6-4.74l-.97 2.85-.9-.3.97-2.85zm1.58-4.74l-.95 2.84-.9-.3.96-2.85zm1.6-4.75l-.96 2.85-.9-.3.96-2.85zm1.6-4.74l-.96 2.86-.9-.3.95-2.85zm1.6-4.72l-.97 2.84-.9-.3.95-2.85zm1.48-4.8l-.8 2.75-.05.15-.9-.3.03-.14.8-2.72zm1.4-4.8l-.85 2.88-.92-.26.84-2.9zm1.4-4.8l-.85 2.88-.92-.27.83-2.9zm1.38-4.8l-.84 2.88-.9-.27.83-2.9zm1.4-4.8l-.84 2.87-.9-.26.82-2.9zm1.4-4.8l-.85 2.87-.9-.26.83-2.9zm1.4-4.8l-.85 2.87-.9-.27.82-2.88zm1.38-4.8l-.84 2.87-.9-.27.83-2.88zm1.34-4.85l-.38 1.53-.4 1.4-.9-.28.38-1.36.38-1.52zm1.2-4.86l-.72 2.92-.93-.24.7-2.9zm1.18-4.85l-.7 2.9-.93-.22.7-2.9zm1.2-4.86l-.72 2.9-.92-.2.72-2.93zm1.2-4.86l-.73 2.92-.93-.23.72-2.92zm1.18-4.85l-.7 2.9-.93-.2.7-2.93zm1.2-4.86l-.72 2.9-.92-.22.7-2.92zm1.2-4.86l-.73 2.9-.92-.22.72-2.9zm1.18-4.86l-.7 2.9-.94-.2.72-2.93zm1.2-4.88l-.03.13-.7 2.8-.9-.22.67-2.78.02-.1zm.98-4.9l-.6 2.94-.92-.2.6-2.93zm1-4.9l-.6 2.94-.93-.2.6-2.93zm.98-4.9l-.6 2.94-.93-.2.6-2.93zm1-4.9l-.6 2.94-.94-.2.6-2.93zm.98-4.9l-.6 2.93-.93-.18.6-2.94zm1-4.9l-.6 2.93-.94-.2.6-2.93zm.97-4.9l-.6 2.93-.93-.2.6-2.93zm.98-4.9l-.6 2.93-.92-.2.6-2.93zm1-4.9l-.6 2.93-.93-.2.6-2.93zm.98-4.92l-.6 2.94-.93-.18.6-2.94zm.88-4.94l-.45 2.8-.05.18-.93-.2.04-.16.44-2.77zm.78-4.94l-.47 2.97-.94-.15.48-2.97zm.78-4.94l-.47 2.97-.94-.15.46-2.96zm.78-4.94l-.47 2.97-.93-.16.47-2.96zm.78-4.93l-.47 2.95-.94-.15.47-2.96zm.8-4.95l-.48 2.96-.94-.14.47-2.96zm.77-4.94l-.47 2.97-.94-.15.47-2.96zm.78-4.93l-.46 2.96-.94-.15.47-2.96zm.8-4.94l-.47 2.96-.94-.16.46-2.96zm.78-4.94l-.47 2.95-.93-.14.47-2.96zm.78-4.95l-.47 2.96-.95-.13.47-2.97zm.78-4.94l-.47 2.98-.94-.15.47-2.97zm.62-4.97l-.35 2.98-.93-.1.34-2.98zm.57-4.97l-.34 2.98-.96-.1.35-3zm.58-4.96l-.34 2.98-.94-.1.34-3zm.58-4.97l-.34 2.98-.95-.1.34-2.98zm.58-4.97l-.35 2.98-.93-.1.34-3zm.57-4.97l-.34 2.98-.96-.12.35-2.98zm.58-4.97l-.34 2.98-.94-.1.34-2.98zm.58-4.97l-.34 2.98-.95-.1.34-3zm.58-4.97l-.35 2.97-.93-.1.34-3zm.57-4.98l-.34 3-.96-.12.35-2.98zm.58-4.96l-.34 2.98-.94-.1.34-3zm.58-4.97l-.34 2.97-.95-.1.34-3zm.58-4.98l-.35 2.98-.93-.1.34-3zm.4-5l-.22 3-.94-.08.22-3zm.37-5l-.22 3-.94-.07.22-3zm.37-4.98l-.22 3-.95-.07.22-3zm.37-4.98l-.22 3-.95-.08.22-3zm.37-5l-.23 3-.93-.07.22-3zm.36-4.98l-.22 3-.95-.07.23-2.98zm.37-4.98l-.22 3-.95-.08.22-3zm.37-5l-.22 3-.95-.07.22-3zm.36-4.98l-.22 3-.94-.07.22-3zm.37-4.98l-.22 3-.95-.08.22-3zm.37-5l-.22 3-.95-.07.22-3zm.37-4.98l-.2 3-.96-.08.22-3zm.37-5l-.22 3-.94-.06.23-3zm.37-4.97l-.22 2.98-.95-.07.22-2.98zm.2-5.03l-.1 3-.95-.03.1-3zm.16-5l-.1 3-.95-.03.1-3zm.16-5l-.1 3-.95-.03.1-3zm.16-5l-.1 3-.95-.02.1-3zm.16-5l-.1 3-.95-.02.1-3zm.16-5l-.1 3-.95-.02.1-3zm.16-5l-.1 3-.95-.02.1-3zm.16-4.98l-.1 2.98-.95-.03.1-3zm.15-5l-.08 3-.95-.04.1-3zm.18-5l-.1 3-.95-.04.1-3zm.15-5l-.1 3-.94-.04.1-3zm.16-5l-.1 3-.95-.04.1-3zm.15-5l-.1 3-.94-.03.1-3zm.16-5l-.08 3-.95-.03.1-3zm.1-3.5l-.02 1.5-.95-.02v-1.5z" stroke="#3a414a" stroke-width=".05" fill="#3a414a"/><path d="M-3212.5 1019l-.03.5h-.94v-.53z" fill="#3a414a"/><path stroke="#3a414a" stroke-width=".05" fill="#3a414a"/><path d="M-2315.45 126.4l-9.27-.04 4.7-14.24z" fill="#3a414a"/><path d="M-2314.8 126.9l-10.58-.07 5.38-16.25zm-9.27-1l7.97.03-3.92-12.28z" stroke="#3a414a" stroke-width=".05" fill="#3a414a"/><g><use xlink:href="#D" transform="matrix(1,0,0,1,-2485.4487912666573,652.0796647627556) translate(0 14.222222222222223)"/></g><path d="M-3749 491.8h204.5a6 6 0 0 0 6-6V-109a6 6 0 0 1 6-6h204.5M-3749 491.8h-3.5" stroke="#3a414a" fill="none"/><path d="M-3327.5-115v.47h-.5v-.94h.5z" stroke="#3a414a" stroke-width=".05" fill="#3a414a"/><path d="M-3749 491.8h198a6 6 0 0 0 6-6V151a6 6 0 0 1 6-6h198M-3749 491.8h-3.5" stroke="#3a414a" fill="none"/><path d="M-3340.5 145v.47h-.5v-.94h.5z" stroke="#3a414a" stroke-width=".05" fill="#3a414a"/><path d="M-3749 491.8h198a6 6 0 0 0 6-6v-56.24a6 6 0 0 1 6-6h198M-3749 491.8h-3.5" stroke="#3a414a" fill="none"/><path d="M-3340.5 423.56v.48h-.5v-.95h.5z" stroke="#3a414a" stroke-width=".05" fill="#3a414a"/><path d="M-3749 491.8h208a6 6 0 0 1 6 6v202.64a6 6 0 0 0 6 6h208M-3749 491.8h-3.5" stroke="#3a414a" fill="none"/><path d="M-3320.5 706.43v.48h-.5v-.94h.5z" stroke="#3a414a" stroke-width=".05" fill="#3a414a"/><path d="M-3749 491.8h208.5a6 6 0 0 1 6 6v582.64a6 6 0 0 0 6 6h208.5M-3749 491.8h-3.5" stroke="#3a414a" fill="none"/><path d="M-3319.5 1086.43v.48h-.5v-.94h.5z" stroke="#3a414a" stroke-width=".05" fill="#3a414a"/><defs><path d="M169-182c-1-43-94-46-97-3 18 66 151 10 154 114 3 95-165 93-204 36-6-8-10-19-12-30l50-8c3 46 112 56 116 5-17-69-150-10-154-114-4-87 153-88 188-35 5 8 8 18 10 28" id="E"/><path d="M123 10C108 53 80 86 19 72V37c35 8 53-11 59-39L3-190h52l48 148c12-52 28-100 44-148h51" id="F"/><path d="M137-138c1-29-70-34-71-4 15 46 118 7 119 86 1 83-164 76-172 9l43-7c4 19 20 25 44 25 33 8 57-30 24-41C81-84 22-81 20-136c-2-80 154-74 161-7" id="G"/><path d="M115-3C79 11 28 4 28-45v-112H4v-33h27l15-45h31v45h36v33H77v99c-1 23 16 31 38 25v30" id="H"/><path d="M185-48c-13 30-37 53-82 52C43 2 14-33 14-96s30-98 90-98c62 0 83 45 84 108H66c0 31 8 55 39 56 18 0 30-7 34-22zm-45-69c5-46-57-63-70-21-2 6-4 13-4 21h74" id="I"/><path d="M220-157c-53 9-28 100-34 157h-49v-107c1-27-5-49-29-50C55-147 81-57 75 0H25l-1-190h47c2 12-1 28 3 38 10-53 101-56 108 0 13-22 24-43 59-42 82 1 51 116 57 194h-49v-107c-1-25-5-48-29-50" id="J"/><g id="a"><use transform="matrix(0.08641975308641976,0,0,0.08641975308641976,0,0)" xlink:href="#E"/><use transform="matrix(0.08641975308641976,0,0,0.08641975308641976,20.740740740740744,0)" xlink:href="#F"/><use transform="matrix(0.08641975308641976,0,0,0.08641975308641976,38.0246913580247,0)" xlink:href="#G"/><use transform="matrix(0.08641975308641976,0,0,0.08641975308641976,55.308641975308646,0)" xlink:href="#H"/><use transform="matrix(0.08641975308641976,0,0,0.08641975308641976,65.5925925925926,0)" xlink:href="#I"/><use transform="matrix(0.08641975308641976,0,0,0.08641975308641976,82.87654320987654,0)" xlink:href="#J"/></g><path d="M146-102V0H94v-102L6-248h54l60 105 60-105h54" id="K"/><path d="M110-194c64 0 96 36 96 99 0 64-35 99-97 99-61 0-95-36-95-99 0-62 34-99 96-99zm-1 164c35 0 45-28 45-65 0-40-10-65-43-65-34 0-45 26-45 65 0 36 10 65 43 65" id="L"/><path d="M85 4C-2 5 27-109 22-190h50c7 57-23 150 33 157 60-5 35-97 40-157h50l1 190h-47c-2-12 1-28-3-38-12 25-28 42-61 42" id="M"/><path d="M88-194c31-1 46 15 58 34l-1-101h50l1 261h-48c-2-10 0-23-3-31C134-8 116 4 84 4 32 4 16-41 15-95c0-56 19-97 73-99zm17 164c33 0 40-30 41-66 1-37-9-64-41-64s-38 30-39 65c0 43 13 65 39 65" id="N"/><g id="b"><use transform="matrix(0.08641975308641976,0,0,0.08641975308641976,0,0)" xlink:href="#K"/><use transform="matrix(0.08641975308641976,0,0,0.08641975308641976,18.407407407407412,0)" xlink:href="#L"/><use transform="matrix(0.08641975308641976,0,0,0.08641975308641976,37.33333333333334,0)" xlink:href="#M"/><use transform="matrix(0.08641975308641976,0,0,0.08641975308641976,56.25925925925927,0)" xlink:href="#N"/><use transform="matrix(0.08641975308641976,0,0,0.08641975308641976,75.18518518518519,0)" xlink:href="#I"/><use transform="matrix(0.08641975308641976,0,0,0.08641975308641976,92.46913580246914,0)" xlink:href="#J"/><use transform="matrix(0.08641975308641976,0,0,0.08641975308641976,120.12345679012347,0)" xlink:href="#F"/></g><path d="M135-194c53 0 70 44 70 98 0 56-19 98-73 100-31 1-45-17-59-34 3 33 2 69 2 105H25l-1-265h48c2 10 0 23 3 31 11-24 29-35 60-35zM114-30c33 0 39-31 40-66 0-38-9-64-40-64-56 0-55 130 0 130" id="O"/><path d="M25 0v-261h50V0H25" id="P"/><path d="M133-34C117-15 103 5 69 4 32 3 11-16 11-54c-1-60 55-63 116-61 1-26-3-47-28-47-18 1-26 9-28 27l-52-2c7-38 36-58 82-57s74 22 75 68l1 82c-1 14 12 18 25 15v27c-30 8-71 5-69-32zm-48 3c29 0 43-24 42-57-32 0-66-3-65 30 0 17 8 27 23 27" id="Q"/><path d="M121-226c-27-7-43 5-38 36h38v33H83V0H34v-157H6v-33h28c-9-59 32-81 87-68v32" id="R"/><path d="M135-150c-39-12-60 13-60 57V0H25l-1-190h47c2 13-1 29 3 40 6-28 27-53 61-41v41" id="S"/><g id="c"><use transform="matrix(0.08641975308641976,0,0,0.08641975308641976,0,0)" xlink:href="#O"/><use transform="matrix(0.08641975308641976,0,0,0.08641975308641976,18.925925925925927,0)" xlink:href="#P"/><use transform="matrix(0.08641975308641976,0,0,0.08641975308641976,27.567901234567906,0)" xlink:href="#Q"/><use transform="matrix(0.08641975308641976,0,0,0.08641975308641976,44.85185185185187,0)" xlink:href="#H"/><use transform="matrix(0.08641975308641976,0,0,0.08641975308641976,55.13580246913581,0)" xlink:href="#R"/><use transform="matrix(0.08641975308641976,0,0,0.08641975308641976,65.41975308641976,0)" xlink:href="#L"/><use transform="matrix(0.08641975308641976,0,0,0.08641975308641976,84.34567901234568,0)" xlink:href="#S"/><use transform="matrix(0.08641975308641976,0,0,0.08641975308641976,96.44444444444446,0)" xlink:href="#J"/><use transform="matrix(0.08641975308641976,0,0,0.08641975308641976,124.09876543209877,0)" xlink:href="#I"/></g><path d="M199 0l-22-63H83L61 0H9l90-248h61L250 0h-51zm-33-102l-36-108c-10 38-24 72-36 108h72" id="T"/><path d="M25-224v-37h50v37H25zM25 0v-190h50V0H25" id="U"/><path d="M135-194c87-1 58 113 63 194h-50c-7-57 23-157-34-157-59 0-34 97-39 157H25l-1-190h47c2 12-1 28 3 38 12-26 28-41 61-42" id="V"/><g id="d"><use transform="matrix(0.1111111111111111,0,0,0.1111111111111111,0,0)" xlink:href="#T"/><use transform="matrix(0.1111111111111111,0,0,0.1111111111111111,28.777777777777775,0)" xlink:href="#N"/><use transform="matrix(0.1111111111111111,0,0,0.1111111111111111,53.11111111111111,0)" xlink:href="#J"/><use transform="matrix(0.1111111111111111,0,0,0.1111111111111111,88.66666666666666,0)" xlink:href="#U"/><use transform="matrix(0.1111111111111111,0,0,0.1111111111111111,99.77777777777777,0)" xlink:href="#V"/></g><path fill="#fff" d="M128 0H69L1-190h53L99-40l48-150h52" id="W"/><path fill="#fff" d="M133-34C117-15 103 5 69 4 32 3 11-16 11-54c-1-60 55-63 116-61 1-26-3-47-28-47-18 1-26 9-28 27l-52-2c7-38 36-58 82-57s74 22 75 68l1 82c-1 14 12 18 25 15v27c-30 8-71 5-69-32zm-48 3c29 0 43-24 42-57-32 0-66-3-65 30 0 17 8 27 23 27" id="X"/><path fill="#fff" d="M25 0v-261h50V0H25" id="Y"/><path fill="#fff" d="M25-224v-37h50v37H25zM25 0v-190h50V0H25" id="Z"/><path fill="#fff" d="M88-194c31-1 46 15 58 34l-1-101h50l1 261h-48c-2-10 0-23-3-31C134-8 116 4 84 4 32 4 16-41 15-95c0-56 19-97 73-99zm17 164c33 0 40-30 41-66 1-37-9-64-41-64s-38 30-39 65c0 43 13 65 39 65" id="aa"/><path fill="#fff" d="M115-3C79 11 28 4 28-45v-112H4v-33h27l15-45h31v45h36v33H77v99c-1 23 16 31 38 25v30" id="ab"/><path fill="#fff" d="M110-194c64 0 96 36 96 99 0 64-35 99-97 99-61 0-95-36-95-99 0-62 34-99 96-99zm-1 164c35 0 45-28 45-65 0-40-10-65-43-65-34 0-45 26-45 65 0 36 10 65 43 65" id="ac"/><path fill="#fff" d="M135-194c87-1 58 113 63 194h-50c-7-57 23-157-34-157-59 0-34 97-39 157H25l-1-190h47c2 12-1 28 3 38 12-26 28-41 61-42" id="ad"/><g id="e"><use transform="matrix(0.08024691358024691,0,0,0.08024691358024691,0,0)" xlink:href="#W"/><use transform="matrix(0.08024691358024691,0,0,0.08024691358024691,16.049382716049383,0)" xlink:href="#X"/><use transform="matrix(0.08024691358024691,0,0,0.08024691358024691,32.098765432098766,0)" xlink:href="#Y"/><use transform="matrix(0.08024691358024691,0,0,0.08024691358024691,40.123456790123456,0)" xlink:href="#Z"/><use transform="matrix(0.08024691358024691,0,0,0.08024691358024691,48.148148148148145,0)" xlink:href="#aa"/><use transform="matrix(0.08024691358024691,0,0,0.08024691358024691,65.72222222222221,0)" xlink:href="#X"/><use transform="matrix(0.08024691358024691,0,0,0.08024691358024691,81.7716049382716,0)" xlink:href="#ab"/><use transform="matrix(0.08024691358024691,0,0,0.08024691358024691,91.32098765432096,0)" xlink:href="#Z"/><use transform="matrix(0.08024691358024691,0,0,0.08024691358024691,99.34567901234567,0)" xlink:href="#ac"/><use transform="matrix(0.08024691358024691,0,0,0.08024691358024691,116.91975308641975,0)" xlink:href="#ad"/></g><path fill="#fff" d="M185-48c-13 30-37 53-82 52C43 2 14-33 14-96s30-98 90-98c62 0 83 45 84 108H66c0 31 8 55 39 56 18 0 30-7 34-22zm-45-69c5-46-57-63-70-21-2 6-4 13-4 21h74" id="ae"/><path fill="#fff" d="M137-138c1-29-70-34-71-4 15 46 118 7 119 86 1 83-164 76-172 9l43-7c4 19 20 25 44 25 33 8 57-30 24-41C81-84 22-81 20-136c-2-80 154-74 161-7" id="af"/><g id="f"><use transform="matrix(0.08024691358024691,0,0,0.08024691358024691,0,0)" xlink:href="#aa"/><use transform="matrix(0.08024691358024691,0,0,0.08024691358024691,17.574074074074073,0)" xlink:href="#ae"/><use transform="matrix(0.08024691358024691,0,0,0.08024691358024691,33.623456790123456,0)" xlink:href="#af"/></g><path fill="#fff" d="M190-63c-7 42-38 67-86 67-59 0-84-38-90-98-12-110 154-137 174-36l-49 2c-2-19-15-32-35-32-30 0-35 28-38 64-6 74 65 87 74 30" id="ag"/><path fill="#fff" d="M220-157c-53 9-28 100-34 157h-49v-107c1-27-5-49-29-50C55-147 81-57 75 0H25l-1-190h47c2 12-1 28 3 38 10-53 101-56 108 0 13-22 24-43 59-42 82 1 51 116 57 194h-49v-107c-1-25-5-48-29-50" id="ah"/><path fill="#fff" d="M135-194c53 0 70 44 70 98 0 56-19 98-73 100-31 1-45-17-59-34 3 33 2 69 2 105H25l-1-265h48c2 10 0 23 3 31 11-24 29-35 60-35zM114-30c33 0 39-31 40-66 0-38-9-64-40-64-56 0-55 130 0 130" id="ai"/><g id="g"><use transform="matrix(0.08024691358024691,0,0,0.08024691358024691,0,0)" xlink:href="#ag"/><use transform="matrix(0.08024691358024691,0,0,0.08024691358024691,16.049382716049383,0)" xlink:href="#ac"/><use transform="matrix(0.08024691358024691,0,0,0.08024691358024691,33.623456790123456,0)" xlink:href="#ah"/><use transform="matrix(0.08024691358024691,0,0,0.08024691358024691,59.30246913580247,0)" xlink:href="#ai"/><use transform="matrix(0.08024691358024691,0,0,0.08024691358024691,76.87654320987654,0)" xlink:href="#ab"/><use transform="matrix(0.08024691358024691,0,0,0.08024691358024691,86.42592592592592,0)" xlink:href="#ae"/><use transform="matrix(0.08024691358024691,0,0,0.08024691358024691,102.4753086419753,0)" xlink:href="#af"/></g><path fill="#fff" d="M67-125c0 54 23 88 75 88 28 0 53-7 68-21v-34h-60v-39h108v91C232-14 192 4 140 4 58 4 20-42 15-125 8-236 126-280 215-234c19 10 29 26 37 47l-47 15c-11-23-29-39-63-39-53 1-75 33-75 86" id="aj"/><g id="h"><use transform="matrix(0.08024691358024691,0,0,0.08024691358024691,0,0)" xlink:href="#aj"/><use transform="matrix(0.08024691358024691,0,0,0.08024691358024691,22.469135802469136,0)" xlink:href="#ae"/><use transform="matrix(0.08024691358024691,0,0,0.08024691358024691,38.51851851851852,0)" xlink:href="#af"/><use transform="matrix(0.08024691358024691,0,0,0.08024691358024691,54.5679012345679,0)" xlink:href="#ab"/><use transform="matrix(0.08024691358024691,0,0,0.08024691358024691,64.11728395061728,0)" xlink:href="#Z"/><use transform="matrix(0.08024691358024691,0,0,0.08024691358024691,72.14197530864197,0)" xlink:href="#ac"/><use transform="matrix(0.08024691358024691,0,0,0.08024691358024691,89.71604938271605,0)" xlink:href="#ad"/></g><g id="i"><use transform="matrix(0.08024691358024691,0,0,0.08024691358024691,0,0)" xlink:href="#aa"/><use transform="matrix(0.08024691358024691,0,0,0.08024691358024691,17.574074074074073,0)" xlink:href="#ae"/><use transform="matrix(0.08024691358024691,0,0,0.08024691358024691,33.623456790123456,0)" xlink:href="#af"/></g><path fill="#fff" d="M85 4C-2 5 27-109 22-190h50c7 57-23 150 33 157 60-5 35-97 40-157h50l1 190h-47c-2-12 1-28-3-38-12 25-28 42-61 42" id="ak"/><path fill="#fff" d="M135-150c-39-12-60 13-60 57V0H25l-1-190h47c2 13-1 29 3 40 6-28 27-53 61-41v41" id="al"/><g id="j"><use transform="matrix(0.08024691358024691,0,0,0.08024691358024691,0,0)" xlink:href="#ae"/><use transform="matrix(0.08024691358024691,0,0,0.08024691358024691,16.049382716049383,0)" xlink:href="#ab"/><use transform="matrix(0.08024691358024691,0,0,0.08024691358024691,25.598765432098762,0)" xlink:href="#ak"/><use transform="matrix(0.08024691358024691,0,0,0.08024691358024691,43.172839506172835,0)" xlink:href="#Y"/><use transform="matrix(0.08024691358024691,0,0,0.08024691358024691,51.197530864197525,0)" xlink:href="#Z"/><use transform="matrix(0.08024691358024691,0,0,0.08024691358024691,59.22222222222221,0)" xlink:href="#af"/><use transform="matrix(0.08024691358024691,0,0,0.08024691358024691,75.2716049382716,0)" xlink:href="#X"/><use transform="matrix(0.08024691358024691,0,0,0.08024691358024691,91.32098765432096,0)" xlink:href="#ab"/><use transform="matrix(0.08024691358024691,0,0,0.08024691358024691,100.87037037037035,0)" xlink:href="#ae"/><use transform="matrix(0.08024691358024691,0,0,0.08024691358024691,116.91975308641973,0)" xlink:href="#ak"/><use transform="matrix(0.08024691358024691,0,0,0.08024691358024691,134.4938271604938,0)" xlink:href="#al"/><use transform="matrix(0.08024691358024691,0,0,0.08024691358024691,145.72839506172835,0)" xlink:href="#af"/></g><g id="k"><use transform="matrix(0.08024691358024691,0,0,0.08024691358024691,0,0)" xlink:href="#ag"/><use transform="matrix(0.08024691358024691,0,0,0.08024691358024691,16.049382716049383,0)" xlink:href="#ac"/><use transform="matrix(0.08024691358024691,0,0,0.08024691358024691,33.623456790123456,0)" xlink:href="#ad"/><use transform="matrix(0.08024691358024691,0,0,0.08024691358024691,51.197530864197525,0)" xlink:href="#ab"/><use transform="matrix(0.08024691358024691,0,0,0.08024691358024691,60.74691358024691,0)" xlink:href="#ae"/><use transform="matrix(0.08024691358024691,0,0,0.08024691358024691,76.79629629629629,0)" xlink:href="#ad"/><use transform="matrix(0.08024691358024691,0,0,0.08024691358024691,94.37037037037037,0)" xlink:href="#ak"/><use transform="matrix(0.08024691358024691,0,0,0.08024691358024691,111.94444444444444,0)" xlink:href="#af"/></g><path fill="#fff" d="M169-182c-1-43-94-46-97-3 18 66 151 10 154 114 3 95-165 93-204 36-6-8-10-19-12-30l50-8c3 46 112 56 116 5-17-69-150-10-154-114-4-87 153-88 188-35 5 8 8 18 10 28" id="am"/><path fill="#fff" d="M84 4C32 4 15-41 15-95c0-55 18-99 73-99 29 0 47 12 58 34l2-30h48l-1 265h-49V-32C136-9 114 4 84 4zm21-34c32 0 41-29 41-66 0-36-9-64-40-64-33 0-39 30-40 65 0 43 13 65 39 65" id="an"/><g id="l"><use transform="matrix(0.08024691358024691,0,0,0.08024691358024691,0,0)" xlink:href="#am"/><use transform="matrix(0.08024691358024691,0,0,0.08024691358024691,19.25925925925926,0)" xlink:href="#ab"/><use transform="matrix(0.08024691358024691,0,0,0.08024691358024691,28.80864197530864,0)" xlink:href="#X"/><use transform="matrix(0.08024691358024691,0,0,0.08024691358024691,44.858024691358025,0)" xlink:href="#ab"/><use transform="matrix(0.08024691358024691,0,0,0.08024691358024691,54.407407407407405,0)" xlink:href="#Z"/><use transform="matrix(0.08024691358024691,0,0,0.08024691358024691,62.432098765432094,0)" xlink:href="#af"/><use transform="matrix(0.08024691358024691,0,0,0.08024691358024691,78.48148148148148,0)" xlink:href="#ab"/><use transform="matrix(0.08024691358024691,0,0,0.08024691358024691,88.03086419753086,0)" xlink:href="#Z"/><use transform="matrix(0.08024691358024691,0,0,0.08024691358024691,96.05555555555556,0)" xlink:href="#an"/><use transform="matrix(0.08024691358024691,0,0,0.08024691358024691,113.62962962962965,0)" xlink:href="#ak"/><use transform="matrix(0.08024691358024691,0,0,0.08024691358024691,131.2037037037037,0)" xlink:href="#ae"/><use transform="matrix(0.08024691358024691,0,0,0.08024691358024691,147.2530864197531,0)" xlink:href="#af"/></g><path fill="#fff" d="M135-194c52 0 70 43 70 98 0 56-19 99-73 100-30 1-46-15-58-35L72 0H24l1-261h50v104c11-23 29-37 60-37zM114-30c31 0 40-27 40-66 0-37-7-63-39-63s-41 28-41 65c0 36 8 64 40 64" id="ao"/><g id="m"><use transform="matrix(0.08024691358024691,0,0,0.08024691358024691,0,0)" xlink:href="#aj"/><use transform="matrix(0.08024691358024691,0,0,0.08024691358024691,22.469135802469136,0)" xlink:href="#Y"/><use transform="matrix(0.08024691358024691,0,0,0.08024691358024691,30.49382716049383,0)" xlink:href="#ac"/><use transform="matrix(0.08024691358024691,0,0,0.08024691358024691,48.0679012345679,0)" xlink:href="#ao"/><use transform="matrix(0.08024691358024691,0,0,0.08024691358024691,65.64197530864197,0)" xlink:href="#X"/><use transform="matrix(0.08024691358024691,0,0,0.08024691358024691,81.69135802469135,0)" xlink:href="#Y"/><use transform="matrix(0.08024691358024691,0,0,0.08024691358024691,89.71604938271605,0)" xlink:href="#af"/></g><g id="n"><use transform="matrix(0.08024691358024691,0,0,0.08024691358024691,0,0)" xlink:href="#aj"/><use transform="matrix(0.08024691358024691,0,0,0.08024691358024691,22.469135802469136,0)" xlink:href="#ae"/><use transform="matrix(0.08024691358024691,0,0,0.08024691358024691,38.51851851851852,0)" xlink:href="#af"/><use transform="matrix(0.08024691358024691,0,0,0.08024691358024691,54.5679012345679,0)" xlink:href="#ab"/><use transform="matrix(0.08024691358024691,0,0,0.08024691358024691,64.11728395061728,0)" xlink:href="#Z"/><use transform="matrix(0.08024691358024691,0,0,0.08024691358024691,72.14197530864197,0)" xlink:href="#ac"/><use transform="matrix(0.08024691358024691,0,0,0.08024691358024691,89.71604938271605,0)" xlink:href="#ad"/></g><path fill="#fff" d="M195-6C206 82 75 100 31 46c-4-6-6-13-8-21l49-6c3 16 16 24 34 25 40 0 42-37 40-79-11 22-30 35-61 35-53 0-70-43-70-97 0-56 18-96 73-97 30 0 46 14 59 34l2-30h47zm-90-29c32 0 41-27 41-63 0-35-9-62-40-62-32 0-39 29-40 63 0 36 9 62 39 62" id="ap"/><g id="o"><use transform="matrix(0.08024691358024691,0,0,0.08024691358024691,0,0)" xlink:href="#ag"/><use transform="matrix(0.08024691358024691,0,0,0.08024691358024691,16.049382716049383,0)" xlink:href="#X"/><use transform="matrix(0.08024691358024691,0,0,0.08024691358024691,32.098765432098766,0)" xlink:href="#ab"/><use transform="matrix(0.08024691358024691,0,0,0.08024691358024691,41.64814814814815,0)" xlink:href="#ae"/><use transform="matrix(0.08024691358024691,0,0,0.08024691358024691,57.697530864197525,0)" xlink:href="#ap"/><use transform="matrix(0.08024691358024691,0,0,0.08024691358024691,75.27160493827161,0)" xlink:href="#ac"/><use transform="matrix(0.08024691358024691,0,0,0.08024691358024691,92.8456790123457,0)" xlink:href="#al"/><use transform="matrix(0.08024691358024691,0,0,0.08024691358024691,104.08024691358025,0)" xlink:href="#Z"/><use transform="matrix(0.08024691358024691,0,0,0.08024691358024691,112.10493827160495,0)" xlink:href="#ae"/><use transform="matrix(0.08024691358024691,0,0,0.08024691358024691,128.15432098765433,0)" xlink:href="#af"/></g><g id="p"><use transform="matrix(0.08024691358024691,0,0,0.08024691358024691,0,0)" xlink:href="#ae"/><use transform="matrix(0.08024691358024691,0,0,0.08024691358024691,16.049382716049383,0)" xlink:href="#ab"/></g><g id="q"><use transform="matrix(0.08024691358024691,0,0,0.08024691358024691,0,0)" xlink:href="#ab"/><use transform="matrix(0.08024691358024691,0,0,0.08024691358024691,9.549382716049383,0)" xlink:href="#X"/><use transform="matrix(0.08024691358024691,0,0,0.08024691358024691,25.598765432098762,0)" xlink:href="#ap"/><use transform="matrix(0.08024691358024691,0,0,0.08024691358024691,43.172839506172835,0)" xlink:href="#af"/></g><path fill="#fff" d="M24 0v-248h52V0H24" id="aq"/><g id="r"><use transform="matrix(0.08024691358024691,0,0,0.08024691358024691,0,0)" xlink:href="#aq"/><use transform="matrix(0.08024691358024691,0,0,0.08024691358024691,8.024691358024691,0)" xlink:href="#ad"/><use transform="matrix(0.08024691358024691,0,0,0.08024691358024691,25.598765432098762,0)" xlink:href="#af"/><use transform="matrix(0.08024691358024691,0,0,0.08024691358024691,41.64814814814815,0)" xlink:href="#ae"/><use transform="matrix(0.08024691358024691,0,0,0.08024691358024691,57.697530864197525,0)" xlink:href="#al"/><use transform="matrix(0.08024691358024691,0,0,0.08024691358024691,68.9320987654321,0)" xlink:href="#ab"/><use transform="matrix(0.08024691358024691,0,0,0.08024691358024691,78.48148148148148,0)" xlink:href="#Z"/><use transform="matrix(0.08024691358024691,0,0,0.08024691358024691,86.50617283950619,0)" xlink:href="#ac"/><use transform="matrix(0.08024691358024691,0,0,0.08024691358024691,104.08024691358025,0)" xlink:href="#ad"/></g><path fill="#fff" d="M230 0l2-204L168 0h-37L68-204 70 0H24v-248h70l56 185 57-185h69V0h-46" id="ar"/><path fill="#fff" d="M121-226c-27-7-43 5-38 36h38v33H83V0H34v-157H6v-33h28c-9-59 32-81 87-68v32" id="as"/><g id="s"><use transform="matrix(0.08024691358024691,0,0,0.08024691358024691,0,0)" xlink:href="#ar"/><use transform="matrix(0.08024691358024691,0,0,0.08024691358024691,23.993827160493826,0)" xlink:href="#ac"/><use transform="matrix(0.08024691358024691,0,0,0.08024691358024691,41.5679012345679,0)" xlink:href="#aa"/><use transform="matrix(0.08024691358024691,0,0,0.08024691358024691,59.141975308641975,0)" xlink:href="#Z"/><use transform="matrix(0.08024691358024691,0,0,0.08024691358024691,67.16666666666667,0)" xlink:href="#as"/><use transform="matrix(0.08024691358024691,0,0,0.08024691358024691,76.71604938271605,0)" xlink:href="#Z"/><use transform="matrix(0.08024691358024691,0,0,0.08024691358024691,84.74074074074075,0)" xlink:href="#ag"/><use transform="matrix(0.08024691358024691,0,0,0.08024691358024691,100.79012345679011,0)" xlink:href="#X"/><use transform="matrix(0.08024691358024691,0,0,0.08024691358024691,116.8395061728395,0)" xlink:href="#ab"/><use transform="matrix(0.08024691358024691,0,0,0.08024691358024691,126.38888888888889,0)" xlink:href="#Z"/><use transform="matrix(0.08024691358024691,0,0,0.08024691358024691,134.41358024691357,0)" xlink:href="#ac"/><use transform="matrix(0.08024691358024691,0,0,0.08024691358024691,151.98765432098764,0)" xlink:href="#ad"/></g><g id="t"><use transform="matrix(0.08024691358024691,0,0,0.08024691358024691,0,0)" xlink:href="#am"/><use transform="matrix(0.08024691358024691,0,0,0.08024691358024691,19.25925925925926,0)" xlink:href="#ak"/><use transform="matrix(0.08024691358024691,0,0,0.08024691358024691,36.83333333333333,0)" xlink:href="#ai"/><use transform="matrix(0.08024691358024691,0,0,0.08024691358024691,54.407407407407405,0)" xlink:href="#ai"/><use transform="matrix(0.08024691358024691,0,0,0.08024691358024691,71.98148148148148,0)" xlink:href="#al"/><use transform="matrix(0.08024691358024691,0,0,0.08024691358024691,83.21604938271605,0)" xlink:href="#Z"/><use transform="matrix(0.08024691358024691,0,0,0.08024691358024691,91.24074074074075,0)" xlink:href="#ab"/><use transform="matrix(0.08024691358024691,0,0,0.08024691358024691,100.79012345679011,0)" xlink:href="#Z"/><use transform="matrix(0.08024691358024691,0,0,0.08024691358024691,108.81481481481482,0)" xlink:href="#ac"/><use transform="matrix(0.08024691358024691,0,0,0.08024691358024691,126.3888888888889,0)" xlink:href="#ad"/></g><path fill="#fff" d="M199 0l-22-63H83L61 0H9l90-248h61L250 0h-51zm-33-102l-36-108c-10 38-24 72-36 108h72" id="at"/><path fill="#fff" d="M114-157C55-157 80-60 75 0H25v-261h50l-1 109c12-26 28-41 61-42 86-1 58 113 63 194h-50c-7-57 23-157-34-157" id="au"/><g id="u"><use transform="matrix(0.08024691358024691,0,0,0.08024691358024691,0,0)" xlink:href="#at"/><use transform="matrix(0.08024691358024691,0,0,0.08024691358024691,20.78395061728395,0)" xlink:href="#ak"/><use transform="matrix(0.08024691358024691,0,0,0.08024691358024691,38.358024691358025,0)" xlink:href="#ab"/><use transform="matrix(0.08024691358024691,0,0,0.08024691358024691,47.907407407407405,0)" xlink:href="#au"/><use transform="matrix(0.08024691358024691,0,0,0.08024691358024691,65.48148148148148,0)" xlink:href="#ae"/><use transform="matrix(0.08024691358024691,0,0,0.08024691358024691,81.53086419753086,0)" xlink:href="#ad"/><use transform="matrix(0.08024691358024691,0,0,0.08024691358024691,99.10493827160494,0)" xlink:href="#ab"/><use transform="matrix(0.08024691358024691,0,0,0.08024691358024691,108.65432098765432,0)" xlink:href="#Z"/><use transform="matrix(0.08024691358024691,0,0,0.08024691358024691,116.67901234567901,0)" xlink:href="#as"/><use transform="matrix(0.08024691358024691,0,0,0.08024691358024691,126.22839506172839,0)" xlink:href="#Z"/><use transform="matrix(0.08024691358024691,0,0,0.08024691358024691,134.2530864197531,0)" xlink:href="#ag"/><use transform="matrix(0.08024691358024691,0,0,0.08024691358024691,150.30246913580248,0)" xlink:href="#X"/><use transform="matrix(0.08024691358024691,0,0,0.08024691358024691,166.35185185185188,0)" xlink:href="#ab"/><use transform="matrix(0.08024691358024691,0,0,0.08024691358024691,175.90123456790127,0)" xlink:href="#Z"/><use transform="matrix(0.08024691358024691,0,0,0.08024691358024691,183.92592592592595,0)" xlink:href="#ac"/><use transform="matrix(0.08024691358024691,0,0,0.08024691358024691,201.50000000000003,0)" xlink:href="#ad"/></g><path fill="#fff" d="M136-208V0H84v-208H4v-40h212v40h-80" id="av"/><g id="v"><use transform="matrix(0.08024691358024691,0,0,0.08024691358024691,0,0)" xlink:href="#av"/><use transform="matrix(0.08024691358024691,0,0,0.08024691358024691,15.407407407407407,0)" xlink:href="#ac"/><use transform="matrix(0.08024691358024691,0,0,0.08024691358024691,32.98148148148148,0)" xlink:href="#ab"/><use transform="matrix(0.08024691358024691,0,0,0.08024691358024691,42.53086419753086,0)" xlink:href="#X"/><use transform="matrix(0.08024691358024691,0,0,0.08024691358024691,58.58024691358025,0)" xlink:href="#Y"/></g><g id="w"><use transform="matrix(0.08024691358024691,0,0,0.08024691358024691,0,0)" xlink:href="#ag"/><use transform="matrix(0.08024691358024691,0,0,0.08024691358024691,16.049382716049383,0)" xlink:href="#ac"/><use transform="matrix(0.08024691358024691,0,0,0.08024691358024691,33.623456790123456,0)" xlink:href="#ak"/><use transform="matrix(0.08024691358024691,0,0,0.08024691358024691,51.197530864197525,0)" xlink:href="#al"/><use transform="matrix(0.08024691358024691,0,0,0.08024691358024691,62.4320987654321,0)" xlink:href="#af"/></g><path fill="#fff" d="M67-125c0 53 21 87 73 88 37 1 54-22 65-47l45 17C233-25 199 4 140 4 58 4 20-42 15-125 8-235 124-281 211-232c18 10 29 29 36 50l-46 12c-8-25-30-41-62-41-52 0-71 34-72 86" id="aw"/><g id="x"><use transform="matrix(0.08024691358024691,0,0,0.08024691358024691,0,0)" xlink:href="#aw"/><use transform="matrix(0.08024691358024691,0,0,0.08024691358024691,20.78395061728395,0)" xlink:href="#ac"/><use transform="matrix(0.08024691358024691,0,0,0.08024691358024691,38.358024691358025,0)" xlink:href="#ak"/><use transform="matrix(0.08024691358024691,0,0,0.08024691358024691,55.9320987654321,0)" xlink:href="#al"/><use transform="matrix(0.08024691358024691,0,0,0.08024691358024691,67.16666666666667,0)" xlink:href="#af"/></g><g id="y"><use transform="matrix(0.08024691358024691,0,0,0.08024691358024691,0,0)" xlink:href="#ai"/><use transform="matrix(0.08024691358024691,0,0,0.08024691358024691,17.574074074074073,0)" xlink:href="#Y"/><use transform="matrix(0.08024691358024691,0,0,0.08024691358024691,25.598765432098762,0)" xlink:href="#ak"/><use transform="matrix(0.08024691358024691,0,0,0.08024691358024691,43.172839506172835,0)" xlink:href="#af"/></g><path fill="#fff" d="M62-158H24l-5-90h48" id="ax"/><g id="z"><use transform="matrix(0.08024691358024691,0,0,0.08024691358024691,0,0)" xlink:href="#aa"/><use transform="matrix(0.08024691358024691,0,0,0.08024691358024691,17.574074074074073,0)" xlink:href="#ax"/><use transform="matrix(0.08024691358024691,0,0,0.08024691358024691,24.39506172839506,0)" xlink:href="#ae"/><use transform="matrix(0.08024691358024691,0,0,0.08024691358024691,40.44444444444444,0)" xlink:href="#ab"/><use transform="matrix(0.08024691358024691,0,0,0.08024691358024691,49.99382716049382,0)" xlink:href="#ak"/><use transform="matrix(0.08024691358024691,0,0,0.08024691358024691,67.5679012345679,0)" xlink:href="#aa"/><use transform="matrix(0.08024691358024691,0,0,0.08024691358024691,85.14197530864197,0)" xlink:href="#Z"/><use transform="matrix(0.08024691358024691,0,0,0.08024691358024691,93.16666666666669,0)" xlink:href="#X"/><use transform="matrix(0.08024691358024691,0,0,0.08024691358024691,109.21604938271604,0)" xlink:href="#ad"/><use transform="matrix(0.08024691358024691,0,0,0.08024691358024691,126.79012345679014,0)" xlink:href="#ab"/><use transform="matrix(0.08024691358024691,0,0,0.08024691358024691,136.33950617283952,0)" xlink:href="#af"/></g><path fill="#fff" d="M128-127c34 4 56 21 59 58 7 91-148 94-172 28-4-9-6-17-7-26l51-5c1 24 16 35 40 36 23 0 39-12 38-36-1-31-31-36-65-34v-40c32 2 59-3 59-33 0-20-13-33-34-33s-33 13-35 32l-50-3c6-44 37-68 86-68 50 0 83 20 83 66 0 35-22 52-53 58" id="ay"/><use transform="matrix(0.08024691358024691,0,0,0.08024691358024691,0,0)" xlink:href="#ay" id="A"/><g id="B"><use transform="matrix(0.08024691358024691,0,0,0.08024691358024691,0,0)" xlink:href="#av"/><use transform="matrix(0.08024691358024691,0,0,0.08024691358024691,15.407407407407407,0)" xlink:href="#ac"/><use transform="matrix(0.08024691358024691,0,0,0.08024691358024691,32.98148148148148,0)" xlink:href="#ai"/></g><g id="C"><use transform="matrix(0.08024691358024691,0,0,0.08024691358024691,0,0)" xlink:href="#ae"/><use transform="matrix(0.08024691358024691,0,0,0.08024691358024691,16.049382716049383,0)" xlink:href="#ad"/><use transform="matrix(0.08024691358024691,0,0,0.08024691358024691,33.623456790123456,0)" xlink:href="#af"/><use transform="matrix(0.08024691358024691,0,0,0.08024691358024691,49.672839506172835,0)" xlink:href="#ae"/><use transform="matrix(0.08024691358024691,0,0,0.08024691358024691,65.72222222222221,0)" xlink:href="#Z"/><use transform="matrix(0.08024691358024691,0,0,0.08024691358024691,73.74691358024691,0)" xlink:href="#ap"/><use transform="matrix(0.08024691358024691,0,0,0.08024691358024691,91.32098765432099,0)" xlink:href="#ad"/><use transform="matrix(0.08024691358024691,0,0,0.08024691358024691,108.89506172839505,0)" xlink:href="#ae"/><use transform="matrix(0.08024691358024691,0,0,0.08024691358024691,124.94444444444444,0)" xlink:href="#ad"/><use transform="matrix(0.08024691358024691,0,0,0.08024691358024691,142.5185185185185,0)" xlink:href="#ab"/></g><path fill="#333" d="M15-91v-56l181-69v40L49-119l147 57v40" id="az"/><path fill="#333" d="M25-224v-37h50v37H25zM25 0v-190h50V0H25" id="aA"/><path fill="#333" d="M135-194c87-1 58 113 63 194h-50c-7-57 23-157-34-157-59 0-34 97-39 157H25l-1-190h47c2 12-1 28 3 38 12-26 28-41 61-42" id="aB"/><path fill="#333" d="M190-63c-7 42-38 67-86 67-59 0-84-38-90-98-12-110 154-137 174-36l-49 2c-2-19-15-32-35-32-30 0-35 28-38 64-6 74 65 87 74 30" id="aC"/><path fill="#333" d="M25 0v-261h50V0H25" id="aD"/><path fill="#333" d="M85 4C-2 5 27-109 22-190h50c7 57-23 150 33 157 60-5 35-97 40-157h50l1 190h-47c-2-12 1-28-3-38-12 25-28 42-61 42" id="aE"/><path fill="#333" d="M88-194c31-1 46 15 58 34l-1-101h50l1 261h-48c-2-10 0-23-3-31C134-8 116 4 84 4 32 4 16-41 15-95c0-56 19-97 73-99zm17 164c33 0 40-30 41-66 1-37-9-64-41-64s-38 30-39 65c0 43 13 65 39 65" id="aF"/><path fill="#333" d="M185-48c-13 30-37 53-82 52C43 2 14-33 14-96s30-98 90-98c62 0 83 45 84 108H66c0 31 8 55 39 56 18 0 30-7 34-22zm-45-69c5-46-57-63-70-21-2 6-4 13-4 21h74" id="aG"/><path fill="#333" d="M15-22v-40l146-57-146-57v-40l181 69v56" id="aH"/><g id="D"><use transform="matrix(0.04938271604938272,0,0,0.04938271604938272,0,0)" xlink:href="#az"/><use transform="matrix(0.04938271604938272,0,0,0.04938271604938272,10.370370370370372,0)" xlink:href="#az"/><use transform="matrix(0.04938271604938272,0,0,0.04938271604938272,20.740740740740744,0)" xlink:href="#aA"/><use transform="matrix(0.04938271604938272,0,0,0.04938271604938272,25.679012345679016,0)" xlink:href="#aB"/><use transform="matrix(0.04938271604938272,0,0,0.04938271604938272,36.49382716049383,0)" xlink:href="#aC"/><use transform="matrix(0.04938271604938272,0,0,0.04938271604938272,46.370370370370374,0)" xlink:href="#aD"/><use transform="matrix(0.04938271604938272,0,0,0.04938271604938272,51.308641975308646,0)" xlink:href="#aE"/><use transform="matrix(0.04938271604938272,0,0,0.04938271604938272,62.12345679012346,0)" xlink:href="#aF"/><use transform="matrix(0.04938271604938272,0,0,0.04938271604938272,72.93827160493828,0)" xlink:href="#aG"/><use transform="matrix(0.04938271604938272,0,0,0.04938271604938272,82.81481481481482,0)" xlink:href="#aH"/><use transform="matrix(0.04938271604938272,0,0,0.04938271604938272,93.18518518518519,0)" xlink:href="#aH"/></g></defs></g></svg>